<svg xmlns="http://www.w3.org/2000/svg" width="1280" height="760" viewBox="0 0 1280 760">
  <rect width="100%" height="100%" fill="#f7f3ea"/>
  <text x="60" y="58" font-family="Arial, Helvetica, sans-serif" font-size="30" font-weight="700" fill="#1f2933">Fed / TGA / ON RRP Liquidity</text>
  <text x="60" y="91" font-family="Arial, Helvetica, sans-serif" font-size="18" fill="#6b7280">Net liquidity in USD trillions; components indexed to compare trends.</text>
  <text x="60" y="121" font-family="Arial, Helvetica, sans-serif" font-size="18" fill="#167c6b" font-weight="700">Latest: 5.788T</text>
  <text x="210" y="121" font-family="Arial, Helvetica, sans-serif" font-size="15" fill="#6b7280">date range: 2025-08-21 to 2026-09-02 | updated: 2026-09-03T00:55:02.154341Z</text>

  <line x1="90" y1="145.0" x2="1210" y2="145.0" stroke="#d8d2c4" stroke-width="1"/><line x1="90" y1="213.8" x2="1210" y2="213.8" stroke="#d8d2c4" stroke-width="1"/><line x1="90" y1="282.5" x2="1210" y2="282.5" stroke="#d8d2c4" stroke-width="1"/><line x1="90" y1="351.2" x2="1210" y2="351.2" stroke="#d8d2c4" stroke-width="1"/><line x1="90" y1="420.0" x2="1210" y2="420.0" stroke="#d8d2c4" stroke-width="1"/><line x1="90" y1="500.0" x2="1210" y2="500.0" stroke="#d8d2c4" stroke-width="1"/><line x1="90" y1="582.5" x2="1210" y2="582.5" stroke="#d8d2c4" stroke-width="1"/><line x1="90" y1="665.0" x2="1210" y2="665.0" stroke="#d8d2c4" stroke-width="1"/>
  <line x1="90.0" y1="145" x2="90.0" y2="420" stroke="#d8d2c4" stroke-width="1"/><line x1="90.0" y1="500" x2="90.0" y2="665" stroke="#d8d2c4" stroke-width="1"/><line x1="90.0" y1="420" x2="90.0" y2="427" stroke="#9b9383" stroke-width="1"/><text x="90.0" y="445" font-family="Arial, Helvetica, sans-serif" font-size="12" fill="#6b7280" text-anchor="middle">2025-08-21</text><line x1="122.7" y1="145" x2="122.7" y2="420" stroke="#d8d2c4" stroke-width="1"/><line x1="122.7" y1="500" x2="122.7" y2="665" stroke="#d8d2c4" stroke-width="1"/><line x1="122.7" y1="420" x2="122.7" y2="427" stroke="#9b9383" stroke-width="1"/><text x="122.7" y="445" font-family="Arial, Helvetica, sans-serif" font-size="12" fill="#6b7280" text-anchor="middle">2025-09</text><line x1="211.8" y1="145" x2="211.8" y2="420" stroke="#d8d2c4" stroke-width="1"/><line x1="211.8" y1="500" x2="211.8" y2="665" stroke="#d8d2c4" stroke-width="1"/><line x1="211.8" y1="420" x2="211.8" y2="427" stroke="#9b9383" stroke-width="1"/><text x="211.8" y="445" font-family="Arial, Helvetica, sans-serif" font-size="12" fill="#6b7280" text-anchor="middle">2025-10</text><line x1="303.9" y1="145" x2="303.9" y2="420" stroke="#d8d2c4" stroke-width="1"/><line x1="303.9" y1="500" x2="303.9" y2="665" stroke="#d8d2c4" stroke-width="1"/><line x1="303.9" y1="420" x2="303.9" y2="427" stroke="#9b9383" stroke-width="1"/><text x="303.9" y="445" font-family="Arial, Helvetica, sans-serif" font-size="12" fill="#6b7280" text-anchor="middle">2025-11</text><line x1="393.0" y1="145" x2="393.0" y2="420" stroke="#d8d2c4" stroke-width="1"/><line x1="393.0" y1="500" x2="393.0" y2="665" stroke="#d8d2c4" stroke-width="1"/><line x1="393.0" y1="420" x2="393.0" y2="427" stroke="#9b9383" stroke-width="1"/><text x="393.0" y="445" font-family="Arial, Helvetica, sans-serif" font-size="12" fill="#6b7280" text-anchor="middle">2025-12</text><line x1="485.1" y1="145" x2="485.1" y2="420" stroke="#d8d2c4" stroke-width="1"/><line x1="485.1" y1="500" x2="485.1" y2="665" stroke="#d8d2c4" stroke-width="1"/><line x1="485.1" y1="420" x2="485.1" y2="427" stroke="#9b9383" stroke-width="1"/><text x="485.1" y="445" font-family="Arial, Helvetica, sans-serif" font-size="12" fill="#6b7280" text-anchor="middle">2026-01</text><line x1="577.2" y1="145" x2="577.2" y2="420" stroke="#d8d2c4" stroke-width="1"/><line x1="577.2" y1="500" x2="577.2" y2="665" stroke="#d8d2c4" stroke-width="1"/><line x1="577.2" y1="420" x2="577.2" y2="427" stroke="#9b9383" stroke-width="1"/><text x="577.2" y="445" font-family="Arial, Helvetica, sans-serif" font-size="12" fill="#6b7280" text-anchor="middle">2026-02</text><line x1="660.4" y1="145" x2="660.4" y2="420" stroke="#d8d2c4" stroke-width="1"/><line x1="660.4" y1="500" x2="660.4" y2="665" stroke="#d8d2c4" stroke-width="1"/><line x1="660.4" y1="420" x2="660.4" y2="427" stroke="#9b9383" stroke-width="1"/><text x="660.4" y="445" font-family="Arial, Helvetica, sans-serif" font-size="12" fill="#6b7280" text-anchor="middle">2026-03</text><line x1="752.5" y1="145" x2="752.5" y2="420" stroke="#d8d2c4" stroke-width="1"/><line x1="752.5" y1="500" x2="752.5" y2="665" stroke="#d8d2c4" stroke-width="1"/><line x1="752.5" y1="420" x2="752.5" y2="427" stroke="#9b9383" stroke-width="1"/><text x="752.5" y="445" font-family="Arial, Helvetica, sans-serif" font-size="12" fill="#6b7280" text-anchor="middle">2026-04</text><line x1="841.6" y1="145" x2="841.6" y2="420" stroke="#d8d2c4" stroke-width="1"/><line x1="841.6" y1="500" x2="841.6" y2="665" stroke="#d8d2c4" stroke-width="1"/><line x1="841.6" y1="420" x2="841.6" y2="427" stroke="#9b9383" stroke-width="1"/><text x="841.6" y="445" font-family="Arial, Helvetica, sans-serif" font-size="12" fill="#6b7280" text-anchor="middle">2026-05</text><line x1="933.7" y1="145" x2="933.7" y2="420" stroke="#d8d2c4" stroke-width="1"/><line x1="933.7" y1="500" x2="933.7" y2="665" stroke="#d8d2c4" stroke-width="1"/><line x1="933.7" y1="420" x2="933.7" y2="427" stroke="#9b9383" stroke-width="1"/><text x="933.7" y="445" font-family="Arial, Helvetica, sans-serif" font-size="12" fill="#6b7280" text-anchor="middle">2026-06</text><line x1="1022.8" y1="145" x2="1022.8" y2="420" stroke="#d8d2c4" stroke-width="1"/><line x1="1022.8" y1="500" x2="1022.8" y2="665" stroke="#d8d2c4" stroke-width="1"/><line x1="1022.8" y1="420" x2="1022.8" y2="427" stroke="#9b9383" stroke-width="1"/><text x="1022.8" y="445" font-family="Arial, Helvetica, sans-serif" font-size="12" fill="#6b7280" text-anchor="middle">2026-07</text><line x1="1114.9" y1="145" x2="1114.9" y2="420" stroke="#d8d2c4" stroke-width="1"/><line x1="1114.9" y1="500" x2="1114.9" y2="665" stroke="#d8d2c4" stroke-width="1"/><line x1="1114.9" y1="420" x2="1114.9" y2="427" stroke="#9b9383" stroke-width="1"/><text x="1114.9" y="445" font-family="Arial, Helvetica, sans-serif" font-size="12" fill="#6b7280" text-anchor="middle">2026-08</text><line x1="1207.0" y1="145" x2="1207.0" y2="420" stroke="#d8d2c4" stroke-width="1"/><line x1="1207.0" y1="500" x2="1207.0" y2="665" stroke="#d8d2c4" stroke-width="1"/><line x1="1207.0" y1="420" x2="1207.0" y2="427" stroke="#9b9383" stroke-width="1"/><text x="1207.0" y="445" font-family="Arial, Helvetica, sans-serif" font-size="12" fill="#6b7280" text-anchor="middle">2026-09</text><line x1="1210.0" y1="145" x2="1210.0" y2="420" stroke="#d8d2c4" stroke-width="1"/><line x1="1210.0" y1="500" x2="1210.0" y2="665" stroke="#d8d2c4" stroke-width="1"/><line x1="1210.0" y1="420" x2="1210.0" y2="427" stroke="#9b9383" stroke-width="1"/><text x="1210.0" y="445" font-family="Arial, Helvetica, sans-serif" font-size="12" fill="#6b7280" text-anchor="middle">2026-09-02</text>
  <rect x="90" y="145" width="1120" height="275" fill="none" stroke="#b8b0a0" stroke-width="1"/>
  <text x="30" y="151" font-family="Arial, Helvetica, sans-serif" font-size="14" fill="#6b7280">6.09T</text>
  <text x="30" y="420" font-family="Arial, Helvetica, sans-serif" font-size="14" fill="#6b7280">5.55T</text>
  <text x="90" y="127" font-family="Arial, Helvetica, sans-serif" font-size="16" font-weight="700" fill="#1f2933">Net liquidity</text>
  <polyline fill="none" stroke="#167c6b" stroke-width="4" stroke-linejoin="round" stroke-linecap="round" points="90.0,164.0 93.0,174.2 101.9,181.2 104.9,200.0 107.8,188.9 110.8,195.9 113.8,168.5 125.6,236.4 128.6,222.9 131.6,226.6 134.6,225.0 143.5,232.2 146.4,237.2 149.4,223.8 152.4,231.4 155.4,244.0 164.3,319.5 167.2,302.4 170.2,292.7 173.2,297.4 176.2,298.5 185.1,300.5 188.0,279.8 191.0,268.1 194.0,269.6 196.9,282.4 205.9,292.1 208.8,335.0 211.8,309.7 214.8,312.0 217.7,299.1 226.7,307.6 229.6,311.9 232.6,295.1 235.6,296.1 238.5,295.3 250.4,318.9 253.4,321.4 256.4,345.4 259.3,348.3 268.2,348.5 271.2,360.4 274.2,351.6 277.2,371.7 280.1,370.5 289.0,381.7 292.0,391.8 295.0,392.6 298.0,401.0 300.9,363.6 309.8,362.9 312.8,370.3 315.8,379.1 318.8,384.5 321.7,382.6 330.6,390.4 336.6,375.4 339.5,384.8 342.5,383.4 351.4,366.2 354.4,368.0 357.4,366.8 360.3,371.2 363.3,362.3 372.2,369.6 375.2,382.3 378.2,367.6 384.1,396.0 393.0,392.0 396.0,385.8 399.0,380.5 401.9,365.4 404.9,361.2 413.8,366.2 416.8,344.6 419.8,327.0 422.7,320.3 425.7,320.2 434.6,380.9 437.6,367.9 440.6,346.1 443.5,336.6 446.5,335.2 455.4,351.5 458.4,327.5 461.4,303.7 467.3,319.9 476.2,332.6 479.2,316.2 482.1,309.7 488.1,263.5 497.0,273.5 500.0,258.9 502.9,298.5 505.9,293.5 508.9,294.2 517.8,305.4 520.8,297.1 523.7,291.1 526.7,323.3 529.7,337.0 541.6,353.0 544.5,337.1 547.5,345.8 550.5,351.9 559.4,373.6 562.4,389.3 565.3,376.6 568.3,384.4 571.3,346.7 580.2,349.1 583.2,354.1 586.1,344.7 589.1,348.2 592.1,343.5 601.0,349.7 604.0,365.3 606.9,337.9 609.9,343.1 612.9,339.4 624.7,345.0 627.7,331.5 630.7,339.5 633.7,333.7 642.6,331.1 645.5,337.7 648.5,306.1 651.5,311.4 654.5,286.0 663.4,322.5 666.3,316.6 669.3,302.6 672.3,299.5 675.3,295.6 684.2,308.4 687.1,310.6 690.1,273.0 693.1,274.8 696.0,273.3 705.0,339.4 707.9,335.4 710.9,303.5 713.9,307.0 716.8,301.0 725.8,320.4 728.7,303.7 731.7,283.5 734.7,276.3 737.6,289.2 746.6,299.2 749.5,311.5 752.5,257.3 755.5,243.5 758.4,232.3 767.3,243.1 770.3,219.4 773.3,194.4 776.3,189.3 779.2,197.4 788.1,225.5 791.1,235.9 794.1,302.9 797.1,326.4 800.0,340.3 808.9,360.1 811.9,355.8 814.9,343.7 817.9,324.9 820.8,327.1 829.7,341.3 832.7,335.3 835.7,337.9 838.6,328.4 841.6,272.0 850.5,283.4 853.5,273.5 856.5,269.9 859.4,261.8 862.4,258.0 871.3,265.8 874.3,260.5 877.3,232.5 880.2,230.0 883.2,208.0 892.1,221.7 895.1,240.0 898.1,227.2 901.0,229.1 904.0,249.1 915.9,277.2 918.9,262.4 921.8,265.9 924.8,293.2 933.7,269.5 936.7,274.2 939.7,260.3 942.6,259.7 945.6,250.2 954.5,259.6 957.5,252.6 960.5,230.9 963.4,230.1 966.4,238.4 975.3,320.9 978.3,321.5 981.2,303.6 984.2,282.7 996.1,296.7 999.1,288.2 1002.0,276.4 1005.0,261.1 1008.0,273.3 1016.9,263.9 1019.9,285.2 1022.8,234.4 1025.8,215.9 1028.8,219.1 1037.7,222.2 1040.7,223.2 1043.6,199.6 1046.6,197.3 1049.6,194.1 1058.5,200.1 1061.5,219.0 1064.4,219.4 1067.4,232.8 1070.4,229.2 1079.3,235.6 1082.3,259.2 1085.2,237.1 1088.2,258.1 1091.2,262.7 1100.1,271.0 1103.1,302.9 1106.0,309.7 1109.0,323.6 1112.0,262.4 1120.9,259.2 1123.8,286.4 1126.8,283.8 1129.8,300.1 1132.8,296.3 1141.7,302.7 1144.6,318.0 1147.6,293.2 1150.6,296.8 1153.6,293.1 1162.5,279.8 1165.4,294.5 1168.4,288.8 1171.4,288.1 1174.4,287.2 1183.3,304.1 1186.2,317.9 1189.2,307.8 1192.2,303.5 1195.1,313.8 1204.1,340.1 1207.0,299.4 1210.0,299.4"/>

  <rect x="90" y="500" width="1120" height="165" fill="none" stroke="#b8b0a0" stroke-width="1"/>
  <text x="90" y="480" font-family="Arial, Helvetica, sans-serif" font-size="16" font-weight="700" fill="#1f2933">Components trend (start = 100)</text>
  <polyline fill="none" stroke="#2f6fbb" stroke-width="3" stroke-linejoin="round" stroke-linecap="round" points="90.0,619.6 93.0,619.6 101.9,619.6 104.9,619.6 107.8,619.7 110.8,619.7 113.8,619.7 125.6,619.7 128.6,619.7 131.6,619.7 134.6,619.7 143.5,619.7 146.4,619.7 149.4,619.7 152.4,619.7 155.4,619.7 164.3,619.7 167.2,619.7 170.2,619.7 173.2,619.7 176.2,619.7 185.1,619.7 188.0,619.7 191.0,619.7 194.0,619.7 196.9,619.7 205.9,619.7 208.8,619.7 211.8,619.8 214.8,619.8 217.7,619.8 226.7,619.8 229.6,619.8 232.6,619.8 235.6,619.8 238.5,619.8 250.4,619.8 253.4,619.7 256.4,619.7 259.3,619.7 268.2,619.7 271.2,619.7 274.2,619.8 277.2,619.8 280.1,619.8 289.0,619.8 292.0,619.8 295.0,619.8 298.0,619.8 300.9,619.8 309.8,619.8 312.8,619.8 315.8,619.9 318.8,619.9 321.7,619.9 330.6,619.9 336.6,619.8 339.5,619.8 342.5,619.8 351.4,619.8 354.4,619.8 357.4,619.9 360.3,619.9 363.3,619.9 372.2,619.9 375.2,619.9 378.2,620.0 384.1,620.0 393.0,620.0 396.0,620.0 399.0,620.0 401.9,620.0 404.9,620.0 413.8,620.0 416.8,620.0 419.8,620.0 422.7,620.0 425.7,620.0 434.6,620.0 437.6,620.0 440.6,619.9 443.5,619.9 446.5,619.9 455.4,619.9 458.4,619.9 461.4,619.8 467.3,619.8 476.2,619.8 479.2,619.8 482.1,619.5 488.1,619.5 497.0,619.5 500.0,619.5 502.9,619.9 505.9,619.9 508.9,619.9 517.8,619.9 520.8,619.9 523.7,619.8 526.7,619.8 529.7,619.8 541.6,619.8 544.5,619.8 547.5,619.8 550.5,619.8 559.4,619.8 562.4,619.8 565.3,619.8 568.3,619.8 571.3,619.8 580.2,619.8 583.2,619.8 586.1,619.7 589.1,619.7 592.1,619.7 601.0,619.7 604.0,619.7 606.9,619.6 609.9,619.6 612.9,619.6 624.7,619.6 627.7,619.6 630.7,619.6 633.7,619.6 642.6,619.6 645.5,619.6 648.5,619.6 651.5,619.6 654.5,619.6 663.4,619.6 666.3,619.6 669.3,619.6 672.3,619.6 675.3,619.6 684.2,619.6 687.1,619.6 690.1,619.5 693.1,619.5 696.0,619.5 705.0,619.5 707.9,619.5 710.9,619.4 713.9,619.4 716.8,619.4 725.8,619.4 728.7,619.4 731.7,619.4 734.7,619.4 737.6,619.4 746.6,619.4 749.5,619.4 752.5,619.3 755.5,619.3 758.4,619.3 767.3,619.3 770.3,619.3 773.3,619.2 776.3,619.2 779.2,619.2 788.1,619.2 791.1,619.2 794.1,619.2 797.1,619.2 800.0,619.2 808.9,619.2 811.9,619.2 814.9,619.2 817.9,619.2 820.8,619.2 829.7,619.2 832.7,619.2 835.7,619.2 838.6,619.2 841.6,619.2 850.5,619.2 853.5,619.2 856.5,619.2 859.4,619.2 862.4,619.2 871.3,619.2 874.3,619.2 877.3,619.1 880.2,619.1 883.2,619.1 892.1,619.1 895.1,619.1 898.1,619.1 901.0,619.1 904.0,619.1 915.9,619.1 918.9,619.2 921.8,619.2 924.8,619.2 933.7,619.2 936.7,619.2 939.7,619.1 942.6,619.1 945.6,619.1 954.5,619.1 957.5,619.1 960.5,619.1 963.4,619.1 966.4,619.1 975.3,619.1 978.3,619.1 981.2,619.0 984.2,619.0 996.1,619.0 999.1,619.0 1002.0,619.0 1005.0,619.0 1008.0,619.0 1016.9,619.0 1019.9,619.0 1022.8,619.1 1025.8,619.1 1028.8,619.1 1037.7,619.1 1040.7,619.1 1043.6,619.0 1046.6,619.0 1049.6,619.0 1058.5,619.0 1061.5,619.0 1064.4,619.0 1067.4,619.0 1070.4,619.0 1079.3,619.0 1082.3,619.0 1085.2,619.0 1088.2,619.0 1091.2,619.0 1100.1,619.0 1103.1,619.0 1106.0,619.0 1109.0,619.0 1112.0,619.0 1120.9,619.0 1123.8,619.0 1126.8,619.0 1129.8,619.0 1132.8,619.0 1141.7,619.0 1144.6,619.0 1147.6,618.9 1150.6,618.9 1153.6,618.9 1162.5,618.9 1165.4,618.9 1168.4,619.0 1171.4,619.0 1174.4,619.0 1183.3,619.0 1186.2,619.0 1189.2,619.0 1192.2,619.0 1195.1,619.0 1204.1,619.0 1207.0,619.0 1210.0,619.0"/>
  <polyline fill="none" stroke="#b7791f" stroke-width="3" stroke-linejoin="round" stroke-linecap="round" points="90.0,619.6 93.0,618.4 101.9,617.5 104.9,615.3 107.8,617.5 110.8,616.7 113.8,620.0 125.6,611.8 128.6,613.5 131.6,613.1 134.6,613.3 143.5,612.4 146.4,611.8 149.4,613.2 152.4,612.3 155.4,610.7 164.3,601.6 167.2,603.7 170.2,604.7 173.2,604.1 176.2,604.0 185.1,603.8 188.0,606.3 191.0,607.7 194.0,607.5 196.9,606.0 205.9,604.8 208.8,599.6 211.8,604.0 214.8,603.7 217.7,605.2 226.7,604.2 229.6,603.7 232.6,605.5 235.6,605.4 238.5,605.5 250.4,602.6 253.4,602.0 256.4,599.1 259.3,598.7 268.2,598.7 271.2,597.3 274.2,598.8 277.2,596.3 280.1,596.5 289.0,595.1 292.0,593.9 295.0,594.0 298.0,593.0 300.9,597.5 309.8,597.6 312.8,596.7 315.8,596.5 318.8,595.8 321.7,596.1 330.6,595.1 336.6,596.5 339.5,595.3 342.5,595.5 351.4,597.6 354.4,597.4 357.4,599.0 360.3,598.5 363.3,599.6 372.2,598.7 375.2,597.2 378.2,599.1 384.1,595.7 393.0,596.2 396.0,596.9 399.0,598.6 401.9,600.4 404.9,600.9 413.8,600.3 416.8,602.9 419.8,604.8 422.7,605.6 425.7,605.6 434.6,598.3 437.6,599.9 440.6,601.4 443.5,602.6 446.5,602.7 455.4,600.8 458.4,603.7 461.4,605.0 467.3,603.1 476.2,601.6 479.2,603.5 482.1,600.7 488.1,606.3 497.0,605.1 500.0,606.8 502.9,606.1 505.9,606.7 508.9,606.7 517.8,605.3 520.8,606.3 523.7,606.5 526.7,602.7 529.7,601.0 541.6,599.1 544.5,600.8 547.5,599.8 550.5,599.0 559.4,596.4 562.4,594.5 565.3,595.9 568.3,594.9 571.3,599.5 580.2,599.2 583.2,598.6 586.1,598.6 589.1,598.2 592.1,598.8 601.0,598.0 604.0,596.1 606.9,598.4 609.9,597.8 612.9,598.2 624.7,597.6 627.7,599.8 630.7,598.8 633.7,599.5 642.6,599.8 645.5,599.0 648.5,602.8 651.5,602.1 654.5,605.2 663.4,600.8 666.3,601.5 669.3,602.3 672.3,602.7 675.3,603.1 684.2,601.6 687.1,601.3 690.1,604.8 693.1,604.6 696.0,604.8 705.0,596.8 707.9,597.3 710.9,600.5 713.9,600.1 716.8,600.8 725.8,598.5 728.7,600.5 731.7,602.9 734.7,603.7 737.6,602.2 746.6,601.0 749.5,599.5 752.5,604.9 755.5,606.6 758.4,607.9 767.3,606.6 770.3,609.5 773.3,611.4 776.3,612.0 779.2,611.0 788.1,607.6 791.1,606.4 794.1,597.6 797.1,594.8 800.0,593.1 808.9,590.7 811.9,591.2 814.9,592.6 817.9,594.8 820.8,594.6 829.7,592.9 832.7,593.6 835.7,593.7 838.6,594.9 841.6,601.7 850.5,600.3 853.5,601.5 856.5,601.3 859.4,602.3 862.4,602.8 871.3,601.8 874.3,602.5 877.3,604.7 880.2,605.0 883.2,607.6 892.1,606.0 895.1,603.8 898.1,606.2 901.0,606.0 904.0,603.6 915.9,600.2 918.9,602.6 921.8,602.1 924.8,598.8 933.7,601.7 936.7,601.1 939.7,602.4 942.6,602.4 945.6,603.6 954.5,602.5 957.5,603.3 960.5,605.1 963.4,605.2 966.4,604.2 975.3,594.2 978.3,594.2 981.2,595.6 984.2,598.2 996.1,596.5 999.1,597.5 1002.0,599.0 1005.0,600.8 1008.0,599.3 1016.9,600.5 1019.9,597.9 1022.8,604.7 1025.8,606.9 1028.8,606.5 1037.7,606.2 1040.7,606.1 1043.6,608.2 1046.6,608.5 1049.6,608.9 1058.5,608.2 1061.5,605.9 1064.4,605.4 1067.4,603.8 1070.4,604.2 1079.3,603.4 1082.3,600.6 1085.2,603.0 1088.2,600.5 1091.2,599.9 1100.1,598.9 1103.1,595.1 1106.0,594.8 1109.0,593.1 1112.0,600.5 1120.9,600.9 1123.8,597.6 1126.8,597.3 1129.8,595.3 1132.8,595.8 1141.7,595.0 1144.6,593.2 1147.6,595.5 1150.6,595.0 1153.6,595.5 1162.5,597.1 1165.4,595.3 1168.4,596.9 1171.4,596.9 1174.4,597.1 1183.3,595.0 1186.2,593.4 1189.2,595.5 1192.2,596.0 1195.1,594.7 1204.1,591.6 1207.0,596.5 1210.0,596.5"/>
  <polyline fill="none" stroke="#b83242" stroke-width="3" stroke-linejoin="round" stroke-linecap="round" points="90.0,619.6 93.0,605.0 101.9,589.8 104.9,615.3 107.8,607.0 110.8,610.8 113.8,549.1 125.6,625.4 128.6,629.6 131.6,626.6 134.6,625.5 143.5,627.6 146.4,622.9 149.4,614.2 152.4,617.6 155.4,630.4 164.3,630.9 167.2,628.4 170.2,634.9 173.2,635.3 176.2,638.4 185.1,634.6 188.0,634.3 191.0,614.5 194.0,619.6 196.9,589.1 205.9,578.2 208.8,587.8 211.8,640.0 214.8,642.3 217.7,619.6 226.7,624.4 229.6,647.5 232.6,646.6 235.6,647.6 238.5,648.1 250.4,648.9 253.4,646.3 256.4,644.3 259.3,648.2 268.2,645.7 271.2,647.4 274.2,648.3 277.2,644.3 280.1,650.4 289.0,639.4 292.0,634.7 295.0,627.5 298.0,627.9 300.9,584.1 309.8,621.7 312.8,630.9 315.8,636.5 318.8,639.2 321.7,647.1 330.6,644.1 336.6,645.8 339.5,648.6 342.5,651.6 351.4,649.4 354.4,652.4 357.4,652.1 360.3,644.9 363.3,650.3 372.2,652.2 375.2,650.6 378.2,650.7 384.1,643.5 393.0,649.3 396.0,646.1 399.0,650.3 401.9,650.7 404.9,651.7 413.8,651.4 416.8,649.4 419.8,646.9 422.7,649.8 425.7,652.5 434.6,650.2 437.6,651.6 440.6,639.8 443.5,637.9 446.5,649.6 455.4,651.6 458.4,645.8 461.4,647.2 467.3,626.4 476.2,639.5 479.2,636.7 482.1,511.4 488.1,646.1 497.0,645.0 500.0,650.2 502.9,647.5 505.9,649.5 508.9,649.3 517.8,649.1 520.8,649.3 523.7,649.3 526.7,651.0 529.7,652.0 541.6,649.0 544.5,649.2 547.5,650.9 550.5,652.4 559.4,651.7 562.4,652.0 565.3,652.2 568.3,649.8 571.3,640.7 580.2,639.7 583.2,651.3 586.1,650.4 589.1,651.3 592.1,649.5 601.0,651.9 604.0,651.7 606.9,652.3 609.9,649.8 612.9,653.2 624.7,653.1 627.7,652.5 630.7,652.8 633.7,653.0 642.6,652.5 645.5,652.4 648.5,652.1 651.5,648.6 654.5,631.8 663.4,652.8 666.3,652.0 669.3,652.5 672.3,649.9 675.3,651.6 684.2,653.2 687.1,653.3 690.1,652.9 693.1,653.5 696.0,653.1 705.0,652.9 707.9,652.6 710.9,652.7 713.9,652.8 716.8,652.6 725.8,652.5 728.7,652.2 731.7,652.6 734.7,652.5 737.6,652.3 746.6,652.7 749.5,632.5 752.5,650.8 755.5,653.2 758.4,653.2 767.3,653.4 770.3,633.1 773.3,653.4 776.3,653.1 779.2,653.0 788.1,653.4 791.1,653.3 794.1,653.4 797.1,653.4 800.0,653.5 808.9,653.0 811.9,652.6 814.9,652.9 817.9,653.5 820.8,653.6 829.7,653.2 832.7,652.8 835.7,652.7 838.6,642.6 841.6,652.8 850.5,652.8 853.5,652.2 856.5,651.5 859.4,652.6 862.4,652.6 871.3,652.1 874.3,652.1 877.3,648.7 880.2,650.9 883.2,652.8 892.1,644.0 895.1,636.3 898.1,620.3 901.0,649.3 904.0,652.4 915.9,651.3 918.9,651.2 921.8,652.1 924.8,638.0 933.7,651.9 936.7,650.3 939.7,650.9 942.6,652.2 945.6,652.6 954.5,651.2 957.5,652.9 960.5,653.1 963.4,653.0 966.4,653.1 975.3,652.9 978.3,639.3 981.2,644.5 984.2,653.3 996.1,648.4 999.1,645.0 1002.0,647.6 1005.0,646.0 1008.0,645.0 1016.9,648.9 1019.9,617.6 1022.8,652.3 1025.8,650.7 1028.8,650.7 1037.7,650.0 1040.7,647.6 1043.6,649.2 1046.6,645.9 1049.6,652.9 1058.5,652.6 1061.5,653.3 1064.4,653.5 1067.4,653.5 1070.4,653.5 1079.3,653.6 1082.3,653.3 1085.2,653.2 1088.2,652.4 1091.2,652.8 1100.1,651.8 1103.1,652.1 1106.0,650.2 1109.0,652.2 1112.0,650.8 1120.9,650.8 1123.8,650.6 1126.8,651.4 1129.8,651.7 1132.8,651.7 1141.7,652.4 1144.6,652.0 1147.6,652.7 1150.6,653.1 1153.6,653.3 1162.5,653.3 1165.4,653.5 1168.4,653.2 1171.4,653.4 1174.4,653.4 1183.3,653.2 1186.2,653.1 1189.2,652.7 1192.2,653.0 1195.1,653.4 1204.1,644.6 1207.0,652.7 1210.0,653.0"/>
  <text x="30" y="506" font-family="Arial, Helvetica, sans-serif" font-size="14" fill="#6b7280">451.4</text>
  <text x="30" y="665" font-family="Arial, Helvetica, sans-serif" font-size="14" fill="#6b7280">-33.3</text>
  <circle cx="875" cy="466" r="6" fill="#2f6fbb"/><text x="890" y="471" font-family="Arial, Helvetica, sans-serif" font-size="15" fill="#1f2933">Fed assets</text>
  <circle cx="985" cy="466" r="6" fill="#b7791f"/><text x="1000" y="471" font-family="Arial, Helvetica, sans-serif" font-size="15" fill="#1f2933">TGA</text>
  <circle cx="1055" cy="466" r="6" fill="#b83242"/><text x="1070" y="471" font-family="Arial, Helvetica, sans-serif" font-size="15" fill="#1f2933">ON RRP</text>

  <text x="60" y="714" font-family="Arial, Helvetica, sans-serif" font-size="14" fill="#6b7280">Lower chart indexes each component to 100 on 2025-08-21. Latest component dates: Fed 2026-08-26, TGA 2026-09-01, RRP 2026-09-02.</text>
  <text x="60" y="736" font-family="Arial, Helvetica, sans-serif" font-size="14" fill="#6b7280">Source pages: Federal Reserve H.4.1, Treasury DTS, New York Fed reverse repo operations.</text>
</svg>
