<svg xmlns="http://www.w3.org/2000/svg" width="1280" height="760" viewBox="0 0 1280 760">
  <rect width="100%" height="100%" fill="#f7f3ea"/>
  <text x="60" y="58" font-family="Arial, Helvetica, sans-serif" font-size="30" font-weight="700" fill="#1f2933">Fed / TGA / ON RRP Liquidity</text>
  <text x="60" y="91" font-family="Arial, Helvetica, sans-serif" font-size="18" fill="#6b7280">Net liquidity in USD trillions; components indexed to compare trends.</text>
  <text x="60" y="121" font-family="Arial, Helvetica, sans-serif" font-size="18" fill="#167c6b" font-weight="700">Latest: 5.858T</text>
  <text x="210" y="121" font-family="Arial, Helvetica, sans-serif" font-size="15" fill="#6b7280">date range: 2025-09-25 to 2026-10-07 | updated: 2026-10-08T02:25:53.384510Z</text>

  <line x1="90" y1="145.0" x2="1210" y2="145.0" stroke="#d8d2c4" stroke-width="1"/><line x1="90" y1="213.8" x2="1210" y2="213.8" stroke="#d8d2c4" stroke-width="1"/><line x1="90" y1="282.5" x2="1210" y2="282.5" stroke="#d8d2c4" stroke-width="1"/><line x1="90" y1="351.2" x2="1210" y2="351.2" stroke="#d8d2c4" stroke-width="1"/><line x1="90" y1="420.0" x2="1210" y2="420.0" stroke="#d8d2c4" stroke-width="1"/><line x1="90" y1="500.0" x2="1210" y2="500.0" stroke="#d8d2c4" stroke-width="1"/><line x1="90" y1="582.5" x2="1210" y2="582.5" stroke="#d8d2c4" stroke-width="1"/><line x1="90" y1="665.0" x2="1210" y2="665.0" stroke="#d8d2c4" stroke-width="1"/>
  <line x1="90.0" y1="145" x2="90.0" y2="420" stroke="#d8d2c4" stroke-width="1"/><line x1="90.0" y1="500" x2="90.0" y2="665" stroke="#d8d2c4" stroke-width="1"/><line x1="90.0" y1="420" x2="90.0" y2="427" stroke="#9b9383" stroke-width="1"/><text x="90.0" y="445" font-family="Arial, Helvetica, sans-serif" font-size="12" fill="#6b7280" text-anchor="middle">2025-09-25</text><line x1="107.8" y1="145" x2="107.8" y2="420" stroke="#d8d2c4" stroke-width="1"/><line x1="107.8" y1="500" x2="107.8" y2="665" stroke="#d8d2c4" stroke-width="1"/><line x1="107.8" y1="420" x2="107.8" y2="427" stroke="#9b9383" stroke-width="1"/><text x="107.8" y="445" font-family="Arial, Helvetica, sans-serif" font-size="12" fill="#6b7280" text-anchor="middle">2025-10</text><line x1="199.9" y1="145" x2="199.9" y2="420" stroke="#d8d2c4" stroke-width="1"/><line x1="199.9" y1="500" x2="199.9" y2="665" stroke="#d8d2c4" stroke-width="1"/><line x1="199.9" y1="420" x2="199.9" y2="427" stroke="#9b9383" stroke-width="1"/><text x="199.9" y="445" font-family="Arial, Helvetica, sans-serif" font-size="12" fill="#6b7280" text-anchor="middle">2025-11</text><line x1="289.0" y1="145" x2="289.0" y2="420" stroke="#d8d2c4" stroke-width="1"/><line x1="289.0" y1="500" x2="289.0" y2="665" stroke="#d8d2c4" stroke-width="1"/><line x1="289.0" y1="420" x2="289.0" y2="427" stroke="#9b9383" stroke-width="1"/><text x="289.0" y="445" font-family="Arial, Helvetica, sans-serif" font-size="12" fill="#6b7280" text-anchor="middle">2025-12</text><line x1="381.1" y1="145" x2="381.1" y2="420" stroke="#d8d2c4" stroke-width="1"/><line x1="381.1" y1="500" x2="381.1" y2="665" stroke="#d8d2c4" stroke-width="1"/><line x1="381.1" y1="420" x2="381.1" y2="427" stroke="#9b9383" stroke-width="1"/><text x="381.1" y="445" font-family="Arial, Helvetica, sans-serif" font-size="12" fill="#6b7280" text-anchor="middle">2026-01</text><line x1="473.2" y1="145" x2="473.2" y2="420" stroke="#d8d2c4" stroke-width="1"/><line x1="473.2" y1="500" x2="473.2" y2="665" stroke="#d8d2c4" stroke-width="1"/><line x1="473.2" y1="420" x2="473.2" y2="427" stroke="#9b9383" stroke-width="1"/><text x="473.2" y="445" font-family="Arial, Helvetica, sans-serif" font-size="12" fill="#6b7280" text-anchor="middle">2026-02</text><line x1="556.4" y1="145" x2="556.4" y2="420" stroke="#d8d2c4" stroke-width="1"/><line x1="556.4" y1="500" x2="556.4" y2="665" stroke="#d8d2c4" stroke-width="1"/><line x1="556.4" y1="420" x2="556.4" y2="427" stroke="#9b9383" stroke-width="1"/><text x="556.4" y="445" font-family="Arial, Helvetica, sans-serif" font-size="12" fill="#6b7280" text-anchor="middle">2026-03</text><line x1="648.5" y1="145" x2="648.5" y2="420" stroke="#d8d2c4" stroke-width="1"/><line x1="648.5" y1="500" x2="648.5" y2="665" stroke="#d8d2c4" stroke-width="1"/><line x1="648.5" y1="420" x2="648.5" y2="427" stroke="#9b9383" stroke-width="1"/><text x="648.5" y="445" font-family="Arial, Helvetica, sans-serif" font-size="12" fill="#6b7280" text-anchor="middle">2026-04</text><line x1="737.6" y1="145" x2="737.6" y2="420" stroke="#d8d2c4" stroke-width="1"/><line x1="737.6" y1="500" x2="737.6" y2="665" stroke="#d8d2c4" stroke-width="1"/><line x1="737.6" y1="420" x2="737.6" y2="427" stroke="#9b9383" stroke-width="1"/><text x="737.6" y="445" font-family="Arial, Helvetica, sans-serif" font-size="12" fill="#6b7280" text-anchor="middle">2026-05</text><line x1="829.7" y1="145" x2="829.7" y2="420" stroke="#d8d2c4" stroke-width="1"/><line x1="829.7" y1="500" x2="829.7" y2="665" stroke="#d8d2c4" stroke-width="1"/><line x1="829.7" y1="420" x2="829.7" y2="427" stroke="#9b9383" stroke-width="1"/><text x="829.7" y="445" font-family="Arial, Helvetica, sans-serif" font-size="12" fill="#6b7280" text-anchor="middle">2026-06</text><line x1="918.9" y1="145" x2="918.9" y2="420" stroke="#d8d2c4" stroke-width="1"/><line x1="918.9" y1="500" x2="918.9" y2="665" stroke="#d8d2c4" stroke-width="1"/><line x1="918.9" y1="420" x2="918.9" y2="427" stroke="#9b9383" stroke-width="1"/><text x="918.9" y="445" font-family="Arial, Helvetica, sans-serif" font-size="12" fill="#6b7280" text-anchor="middle">2026-07</text><line x1="1011.0" y1="145" x2="1011.0" y2="420" stroke="#d8d2c4" stroke-width="1"/><line x1="1011.0" y1="500" x2="1011.0" y2="665" stroke="#d8d2c4" stroke-width="1"/><line x1="1011.0" y1="420" x2="1011.0" y2="427" stroke="#9b9383" stroke-width="1"/><text x="1011.0" y="445" font-family="Arial, Helvetica, sans-serif" font-size="12" fill="#6b7280" text-anchor="middle">2026-08</text><line x1="1103.1" y1="145" x2="1103.1" y2="420" stroke="#d8d2c4" stroke-width="1"/><line x1="1103.1" y1="500" x2="1103.1" y2="665" stroke="#d8d2c4" stroke-width="1"/><line x1="1103.1" y1="420" x2="1103.1" y2="427" stroke="#9b9383" stroke-width="1"/><text x="1103.1" y="445" font-family="Arial, Helvetica, sans-serif" font-size="12" fill="#6b7280" text-anchor="middle">2026-09</text><line x1="1192.2" y1="145" x2="1192.2" y2="420" stroke="#d8d2c4" stroke-width="1"/><line x1="1192.2" y1="500" x2="1192.2" y2="665" stroke="#d8d2c4" stroke-width="1"/><line x1="1192.2" y1="420" x2="1192.2" y2="427" stroke="#9b9383" stroke-width="1"/><text x="1192.2" y="445" font-family="Arial, Helvetica, sans-serif" font-size="12" fill="#6b7280" text-anchor="middle">2026-10</text><line x1="1210.0" y1="145" x2="1210.0" y2="420" stroke="#d8d2c4" stroke-width="1"/><line x1="1210.0" y1="500" x2="1210.0" y2="665" stroke="#d8d2c4" stroke-width="1"/><line x1="1210.0" y1="420" x2="1210.0" y2="427" stroke="#9b9383" stroke-width="1"/><text x="1210.0" y="445" font-family="Arial, Helvetica, sans-serif" font-size="12" fill="#6b7280" text-anchor="middle">2026-10-07</text>
  <rect x="90" y="145" width="1120" height="275" fill="none" stroke="#b8b0a0" stroke-width="1"/>
  <text x="30" y="151" font-family="Arial, Helvetica, sans-serif" font-size="14" fill="#6b7280">6.04T</text>
  <text x="30" y="420" font-family="Arial, Helvetica, sans-serif" font-size="14" fill="#6b7280">5.55T</text>
  <text x="90" y="127" font-family="Arial, Helvetica, sans-serif" font-size="16" font-weight="700" fill="#1f2933">Net liquidity</text>
  <polyline fill="none" stroke="#167c6b" stroke-width="4" stroke-linejoin="round" stroke-linecap="round" points="90.0,254.0 93.0,268.2 101.9,279.1 104.9,327.1 107.8,298.8 110.8,301.3 113.8,287.0 122.7,296.5 125.6,301.3 128.6,282.4 131.6,283.5 134.6,282.7 146.4,309.1 149.4,311.9 152.4,338.8 155.4,342.0 164.3,342.2 167.2,355.5 170.2,345.7 173.2,368.2 176.2,366.8 185.1,379.4 188.0,390.7 191.0,391.6 194.0,401.0 196.9,359.2 205.9,358.4 208.8,366.6 211.8,376.4 214.8,382.6 217.7,380.4 226.7,389.2 232.6,372.3 235.6,382.9 238.5,381.3 247.5,362.1 250.4,364.0 253.4,362.7 256.4,367.6 259.3,357.7 268.2,365.9 271.2,380.1 274.2,363.6 280.1,395.4 289.0,390.9 292.0,384.0 295.0,378.0 298.0,361.2 300.9,356.4 309.8,362.0 312.8,337.8 315.8,318.1 318.8,310.7 321.7,310.6 330.6,378.5 333.6,364.0 336.6,339.6 339.5,328.8 342.5,327.4 351.4,345.5 354.4,318.7 357.4,292.1 363.3,310.2 372.2,324.5 375.2,306.1 378.2,298.8 384.1,247.1 393.0,258.3 396.0,241.9 399.0,286.2 401.9,280.7 404.9,281.5 413.8,294.0 416.8,284.7 419.8,278.0 422.7,314.0 425.7,329.4 437.6,347.2 440.6,329.4 443.5,339.2 446.5,346.0 455.4,370.3 458.4,387.9 461.4,373.7 464.3,382.4 467.3,340.2 476.2,342.9 479.2,348.4 482.1,338.0 485.1,341.9 488.1,336.6 497.0,343.6 500.0,361.1 502.9,330.3 505.9,336.2 508.9,332.1 520.8,338.3 523.7,323.1 526.7,332.2 529.7,325.7 538.6,322.8 541.6,330.1 544.5,294.8 547.5,300.7 550.5,272.2 559.4,313.1 562.4,306.5 565.3,290.8 568.3,287.3 571.3,283.0 580.2,297.3 583.2,299.7 586.1,257.8 589.1,259.7 592.1,258.1 601.0,332.0 604.0,327.6 606.9,291.8 609.9,295.8 612.9,289.0 621.8,310.8 624.7,292.0 627.7,269.5 630.7,261.4 633.7,275.8 642.6,287.0 645.5,300.8 648.5,240.1 651.5,224.6 654.5,212.2 663.4,224.3 666.3,197.7 669.3,169.7 672.3,164.0 675.3,173.1 684.2,204.5 687.1,216.1 690.1,291.2 693.1,317.5 696.0,333.0 705.0,355.2 707.9,350.4 710.9,336.8 713.9,315.8 716.8,318.3 725.8,334.1 728.7,327.4 731.7,330.3 734.7,319.8 737.6,256.6 746.6,269.3 749.5,258.2 752.5,254.3 755.5,245.1 758.4,241.0 767.3,249.6 770.3,243.7 773.3,212.3 776.3,209.5 779.2,184.9 788.1,200.2 791.1,220.7 794.1,206.4 797.1,208.6 800.0,230.9 811.9,262.4 814.9,245.8 817.9,249.8 820.8,280.3 829.7,253.8 832.7,259.0 835.7,243.5 838.6,242.9 841.6,232.2 850.5,242.7 853.5,234.9 856.5,210.5 859.4,209.6 862.4,218.9 871.3,311.3 874.3,312.0 877.3,291.9 880.2,268.6 892.1,284.2 895.1,274.7 898.1,261.6 901.0,244.4 904.0,258.0 912.9,247.5 915.9,271.3 918.9,214.5 921.8,193.8 924.8,197.3 933.7,200.9 936.7,201.9 939.7,175.5 942.6,172.9 945.6,169.4 954.5,176.1 957.5,197.3 960.5,197.7 963.4,212.7 966.4,208.7 975.3,215.9 978.3,242.2 981.2,217.5 984.2,241.0 987.2,246.2 996.1,255.4 999.1,291.2 1002.0,298.8 1005.0,314.3 1008.0,245.9 1016.9,242.2 1019.9,272.7 1022.8,269.8 1025.8,288.0 1028.8,283.7 1037.7,290.9 1040.7,308.1 1043.6,280.3 1046.6,284.3 1049.6,280.2 1058.5,265.3 1061.5,281.7 1064.4,275.4 1067.4,274.6 1070.4,273.6 1079.3,292.5 1082.3,307.9 1085.2,296.7 1088.2,291.8 1091.2,303.4 1100.1,332.8 1103.1,287.3 1106.0,284.6 1109.0,261.8 1112.0,253.4 1123.8,248.4 1126.8,226.0 1129.8,211.5 1132.8,213.9 1141.7,241.5 1144.6,309.3 1147.6,306.1 1150.6,295.3 1153.6,302.8 1162.5,313.2 1165.4,286.7 1168.4,280.4 1171.4,267.6 1174.4,279.2 1183.3,287.3 1186.2,274.4 1189.2,303.7 1192.2,252.8 1195.1,240.1 1204.1,247.0 1207.0,248.1 1210.0,248.1"/>

  <rect x="90" y="500" width="1120" height="165" fill="none" stroke="#b8b0a0" stroke-width="1"/>
  <text x="90" y="480" font-family="Arial, Helvetica, sans-serif" font-size="16" font-weight="700" fill="#1f2933">Components trend (start = 100)</text>
  <polyline fill="none" stroke="#2f6fbb" stroke-width="3" stroke-linejoin="round" stroke-linecap="round" points="90.0,619.6 93.0,619.6 101.9,619.6 104.9,619.6 107.8,619.7 110.8,619.7 113.8,619.7 122.7,619.7 125.6,619.7 128.6,619.7 131.6,619.7 134.6,619.7 146.4,619.7 149.4,619.7 152.4,619.7 155.4,619.7 164.3,619.7 167.2,619.7 170.2,619.7 173.2,619.7 176.2,619.7 185.1,619.7 188.0,619.7 191.0,619.7 194.0,619.7 196.9,619.7 205.9,619.7 208.8,619.7 211.8,619.8 214.8,619.8 217.7,619.8 226.7,619.8 232.6,619.8 235.6,619.8 238.5,619.8 247.5,619.8 250.4,619.8 253.4,619.9 256.4,619.9 259.3,619.9 268.2,619.9 271.2,619.9 274.2,619.9 280.1,619.9 289.0,619.9 292.0,619.9 295.0,620.0 298.0,620.0 300.9,620.0 309.8,620.0 312.8,620.0 315.8,620.0 318.8,620.0 321.7,620.0 330.6,620.0 333.6,620.0 336.6,619.9 339.5,619.9 342.5,619.9 351.4,619.9 354.4,619.9 357.4,619.7 363.3,619.7 372.2,619.7 375.2,619.7 378.2,619.4 384.1,619.4 393.0,619.4 396.0,619.4 399.0,619.8 401.9,619.8 404.9,619.8 413.8,619.8 416.8,619.8 419.8,619.7 422.7,619.7 425.7,619.7 437.6,619.7 440.6,619.7 443.5,619.7 446.5,619.7 455.4,619.7 458.4,619.7 461.4,619.7 464.3,619.7 467.3,619.7 476.2,619.7 479.2,619.7 482.1,619.6 485.1,619.6 488.1,619.6 497.0,619.6 500.0,619.6 502.9,619.5 505.9,619.5 508.9,619.5 520.8,619.5 523.7,619.6 526.7,619.6 529.7,619.6 538.6,619.6 541.6,619.6 544.5,619.6 547.5,619.6 550.5,619.6 559.4,619.6 562.4,619.6 565.3,619.5 568.3,619.5 571.3,619.5 580.2,619.5 583.2,619.5 586.1,619.4 589.1,619.4 592.1,619.4 601.0,619.4 604.0,619.4 606.9,619.4 609.9,619.4 612.9,619.4 621.8,619.4 624.7,619.4 627.7,619.4 630.7,619.4 633.7,619.4 642.6,619.4 645.5,619.4 648.5,619.3 651.5,619.3 654.5,619.3 663.4,619.3 666.3,619.3 669.3,619.2 672.3,619.2 675.3,619.2 684.2,619.2 687.1,619.2 690.1,619.1 693.1,619.1 696.0,619.1 705.0,619.1 707.9,619.1 710.9,619.1 713.9,619.1 716.8,619.1 725.8,619.1 728.7,619.1 731.7,619.1 734.7,619.1 737.6,619.1 746.6,619.1 749.5,619.1 752.5,619.1 755.5,619.1 758.4,619.1 767.3,619.1 770.3,619.1 773.3,619.0 776.3,619.0 779.2,619.0 788.1,619.0 791.1,619.0 794.1,619.1 797.1,619.1 800.0,619.1 811.9,619.1 814.9,619.1 817.9,619.1 820.8,619.1 829.7,619.1 832.7,619.1 835.7,619.1 838.6,619.1 841.6,619.1 850.5,619.1 853.5,619.1 856.5,619.0 859.4,619.0 862.4,619.0 871.3,619.0 874.3,619.0 877.3,618.9 880.2,618.9 892.1,618.9 895.1,618.9 898.1,619.0 901.0,619.0 904.0,619.0 912.9,619.0 915.9,619.0 918.9,619.0 921.8,619.0 924.8,619.0 933.7,619.0 936.7,619.0 939.7,619.0 942.6,619.0 945.6,619.0 954.5,619.0 957.5,619.0 960.5,618.9 963.4,618.9 966.4,618.9 975.3,618.9 978.3,618.9 981.2,618.9 984.2,618.9 987.2,618.9 996.1,618.9 999.1,618.9 1002.0,618.9 1005.0,618.9 1008.0,618.9 1016.9,618.9 1019.9,618.9 1022.8,618.9 1025.8,618.9 1028.8,618.9 1037.7,618.9 1040.7,618.9 1043.6,618.8 1046.6,618.8 1049.6,618.8 1058.5,618.8 1061.5,618.8 1064.4,618.9 1067.4,618.9 1070.4,618.9 1079.3,618.9 1082.3,618.9 1085.2,619.0 1088.2,619.0 1091.2,619.0 1100.1,619.0 1103.1,619.0 1106.0,618.9 1109.0,618.9 1112.0,618.9 1123.8,618.9 1126.8,618.9 1129.8,618.9 1132.8,618.9 1141.7,618.9 1144.6,618.9 1147.6,618.9 1150.6,618.9 1153.6,618.9 1162.5,618.9 1165.4,618.9 1168.4,618.9 1171.4,618.9 1174.4,618.9 1183.3,618.9 1186.2,618.9 1189.2,618.9 1192.2,618.9 1195.1,618.9 1204.1,618.9 1207.0,618.9 1210.0,618.9"/>
  <polyline fill="none" stroke="#b7791f" stroke-width="3" stroke-linejoin="round" stroke-linecap="round" points="90.0,619.6 93.0,618.5 101.9,617.6 104.9,613.8 107.8,617.0 110.8,616.8 113.8,617.9 122.7,617.2 125.6,616.8 128.6,618.1 131.6,618.0 134.6,618.1 146.4,616.0 149.4,615.5 152.4,613.4 155.4,613.1 164.3,613.1 167.2,612.1 170.2,613.2 173.2,611.4 176.2,611.5 185.1,610.5 188.0,609.6 191.0,609.6 194.0,608.9 196.9,612.2 205.9,612.3 208.8,611.6 211.8,611.5 214.8,611.0 217.7,611.2 226.7,610.5 232.6,611.5 235.6,610.6 238.5,610.7 247.5,612.3 250.4,612.1 253.4,613.4 256.4,613.0 259.3,613.7 268.2,613.1 271.2,612.0 274.2,613.4 280.1,610.9 289.0,611.2 292.0,611.8 295.0,613.0 298.0,614.3 300.9,614.7 309.8,614.3 312.8,616.2 315.8,617.6 318.8,618.2 321.7,618.2 330.6,612.8 333.6,614.0 336.6,615.1 339.5,616.0 342.5,616.1 351.4,614.6 354.4,616.8 357.4,617.8 363.3,616.4 372.2,615.2 375.2,616.7 378.2,614.6 384.1,618.7 393.0,617.8 396.0,619.1 399.0,618.6 401.9,619.0 404.9,619.0 413.8,618.0 416.8,618.7 419.8,618.9 422.7,616.0 425.7,614.8 437.6,613.4 440.6,614.7 443.5,613.9 446.5,613.4 455.4,611.4 458.4,610.0 461.4,611.0 464.3,610.3 467.3,613.7 476.2,613.5 479.2,613.0 482.1,613.0 485.1,612.7 488.1,613.2 497.0,612.6 500.0,611.2 502.9,612.9 505.9,612.5 508.9,612.8 520.8,612.3 523.7,613.9 526.7,613.2 529.7,613.7 538.6,613.9 541.6,613.3 544.5,616.1 547.5,615.7 550.5,617.9 559.4,614.7 562.4,615.2 565.3,615.8 568.3,616.0 571.3,616.4 580.2,615.2 583.2,615.1 586.1,617.6 589.1,617.4 592.1,617.6 601.0,611.7 604.0,612.1 606.9,614.5 609.9,614.2 612.9,614.7 621.8,613.0 624.7,614.5 627.7,616.2 630.7,616.8 633.7,615.7 642.6,614.8 645.5,613.7 648.5,617.7 651.5,618.9 654.5,619.9 663.4,619.0 666.3,621.1 669.3,622.5 672.3,622.9 675.3,622.2 684.2,619.7 687.1,618.8 690.1,612.3 693.1,610.2 696.0,609.0 705.0,607.2 707.9,607.6 710.9,608.6 713.9,610.3 716.8,610.1 725.8,608.8 728.7,609.3 731.7,609.4 734.7,610.3 737.6,615.3 746.6,614.3 749.5,615.2 752.5,615.1 755.5,615.8 758.4,616.1 767.3,615.4 770.3,615.9 773.3,617.5 776.3,617.8 779.2,619.7 788.1,618.5 791.1,616.9 794.1,618.7 797.1,618.5 800.0,616.7 811.9,614.2 814.9,616.0 817.9,615.6 820.8,613.2 829.7,615.3 832.7,614.9 835.7,615.8 838.6,615.9 841.6,616.7 850.5,615.9 853.5,616.5 856.5,617.8 859.4,617.9 862.4,617.1 871.3,609.8 874.3,609.8 877.3,610.9 880.2,612.7 892.1,611.5 895.1,612.2 898.1,613.3 901.0,614.7 904.0,613.6 912.9,614.4 915.9,612.5 918.9,617.5 921.8,619.2 924.8,618.9 933.7,618.6 936.7,618.5 939.7,620.1 942.6,620.3 945.6,620.6 954.5,620.1 957.5,618.4 960.5,618.0 963.4,616.9 966.4,617.2 975.3,616.6 978.3,614.5 981.2,616.3 984.2,614.4 987.2,614.0 996.1,613.3 999.1,610.4 1002.0,610.2 1005.0,609.0 1008.0,614.4 1016.9,614.7 1019.9,612.3 1022.8,612.1 1025.8,610.6 1028.8,611.0 1037.7,610.4 1040.7,609.0 1043.6,610.7 1046.6,610.4 1049.6,610.7 1058.5,611.9 1061.5,610.6 1064.4,611.8 1067.4,611.8 1070.4,611.9 1079.3,610.4 1082.3,609.2 1085.2,610.7 1088.2,611.1 1091.2,610.2 1100.1,607.9 1103.1,611.5 1106.0,611.4 1109.0,613.2 1112.0,613.9 1123.8,614.3 1126.8,615.9 1129.8,617.1 1132.8,616.9 1141.7,614.7 1144.6,609.3 1147.6,609.3 1150.6,610.1 1153.6,609.5 1162.5,608.7 1165.4,610.8 1168.4,611.3 1171.4,612.3 1174.4,611.4 1183.3,610.7 1186.2,611.8 1189.2,609.6 1192.2,613.7 1195.1,614.7 1204.1,614.1 1207.0,614.0 1210.0,614.0"/>
  <polyline fill="none" stroke="#b83242" stroke-width="3" stroke-linejoin="round" stroke-linecap="round" points="90.0,619.6 93.0,589.1 101.9,578.2 104.9,587.8 107.8,640.0 110.8,642.3 113.8,619.6 122.7,624.4 125.6,647.5 128.6,646.6 131.6,647.6 134.6,648.1 146.4,648.9 149.4,646.3 152.4,644.3 155.4,648.2 164.3,645.7 167.2,647.4 170.2,648.3 173.2,644.3 176.2,650.4 185.1,639.4 188.0,634.7 191.0,627.5 194.0,627.9 196.9,584.1 205.9,621.7 208.8,630.9 211.8,636.5 214.8,639.2 217.7,647.1 226.7,644.1 232.6,645.8 235.6,648.6 238.5,651.6 247.5,649.4 250.4,652.4 253.4,652.1 256.4,644.9 259.3,650.3 268.2,652.2 271.2,650.6 274.2,650.7 280.1,643.5 289.0,649.3 292.0,646.1 295.0,650.3 298.0,650.7 300.9,651.7 309.8,651.4 312.8,649.4 315.8,646.9 318.8,649.8 321.7,652.5 330.6,650.2 333.6,651.6 336.6,639.8 339.5,637.9 342.5,649.6 351.4,651.6 354.4,645.8 357.4,647.2 363.3,626.4 372.2,639.5 375.2,636.7 378.2,511.4 384.1,646.1 393.0,645.0 396.0,650.2 399.0,647.5 401.9,649.5 404.9,649.3 413.8,649.1 416.8,649.3 419.8,649.3 422.7,651.0 425.7,652.0 437.6,649.0 440.6,649.2 443.5,650.9 446.5,652.4 455.4,651.7 458.4,652.0 461.4,652.2 464.3,649.8 467.3,640.7 476.2,639.7 479.2,651.3 482.1,650.4 485.1,651.3 488.1,649.5 497.0,651.9 500.0,651.7 502.9,652.3 505.9,649.8 508.9,653.2 520.8,653.1 523.7,652.5 526.7,652.8 529.7,653.0 538.6,652.5 541.6,652.4 544.5,652.1 547.5,648.6 550.5,631.8 559.4,652.8 562.4,652.0 565.3,652.5 568.3,649.9 571.3,651.6 580.2,653.2 583.2,653.3 586.1,652.9 589.1,653.5 592.1,653.1 601.0,652.9 604.0,652.6 606.9,652.7 609.9,652.8 612.9,652.6 621.8,652.5 624.7,652.2 627.7,652.6 630.7,652.5 633.7,652.3 642.6,652.7 645.5,632.5 648.5,650.8 651.5,653.2 654.5,653.2 663.4,653.4 666.3,633.1 669.3,653.4 672.3,653.1 675.3,653.0 684.2,653.4 687.1,653.3 690.1,653.4 693.1,653.4 696.0,653.5 705.0,653.0 707.9,652.6 710.9,652.9 713.9,653.5 716.8,653.6 725.8,653.2 728.7,652.8 731.7,652.7 734.7,642.6 737.6,652.8 746.6,652.8 749.5,652.2 752.5,651.5 755.5,652.6 758.4,652.6 767.3,652.1 770.3,652.1 773.3,648.7 776.3,650.9 779.2,652.8 788.1,644.0 791.1,636.3 794.1,620.3 797.1,649.3 800.0,652.4 811.9,651.3 814.9,651.2 817.9,652.1 820.8,638.0 829.7,651.9 832.7,650.3 835.7,650.9 838.6,652.2 841.6,652.6 850.5,651.2 853.5,652.9 856.5,653.1 859.4,653.0 862.4,653.1 871.3,652.9 874.3,639.3 877.3,644.5 880.2,653.3 892.1,648.4 895.1,645.0 898.1,647.6 901.0,646.0 904.0,645.0 912.9,648.9 915.9,617.6 918.9,652.3 921.8,650.7 924.8,650.7 933.7,650.0 936.7,647.6 939.7,649.2 942.6,645.9 945.6,652.9 954.5,652.6 957.5,653.3 960.5,653.5 963.4,653.5 966.4,653.5 975.3,653.6 978.3,653.3 981.2,653.2 984.2,652.4 987.2,652.8 996.1,651.8 999.1,652.1 1002.0,650.2 1005.0,652.2 1008.0,650.8 1016.9,650.8 1019.9,650.6 1022.8,651.4 1025.8,651.7 1028.8,651.7 1037.7,652.4 1040.7,652.0 1043.6,652.7 1046.6,653.1 1049.6,653.3 1058.5,653.3 1061.5,653.5 1064.4,653.2 1067.4,653.4 1070.4,653.4 1079.3,653.2 1082.3,653.1 1085.2,652.7 1088.2,653.0 1091.2,653.4 1100.1,644.6 1103.1,652.7 1106.0,653.0 1109.0,652.7 1112.0,652.8 1123.8,652.8 1126.8,653.1 1129.8,647.3 1132.8,646.6 1141.7,651.8 1144.6,652.7 1147.6,646.4 1150.6,653.3 1153.6,652.9 1162.5,652.9 1165.4,653.1 1168.4,653.0 1171.4,652.8 1174.4,652.9 1183.3,652.5 1186.2,638.3 1189.2,638.2 1192.2,653.2 1195.1,651.6 1204.1,652.3 1207.0,653.1 1210.0,650.5"/>
  <text x="30" y="506" font-family="Arial, Helvetica, sans-serif" font-size="14" fill="#6b7280">451.2</text>
  <text x="30" y="665" font-family="Arial, Helvetica, sans-serif" font-size="14" fill="#6b7280">-33.3</text>
  <circle cx="875" cy="466" r="6" fill="#2f6fbb"/><text x="890" y="471" font-family="Arial, Helvetica, sans-serif" font-size="15" fill="#1f2933">Fed assets</text>
  <circle cx="985" cy="466" r="6" fill="#b7791f"/><text x="1000" y="471" font-family="Arial, Helvetica, sans-serif" font-size="15" fill="#1f2933">TGA</text>
  <circle cx="1055" cy="466" r="6" fill="#b83242"/><text x="1070" y="471" font-family="Arial, Helvetica, sans-serif" font-size="15" fill="#1f2933">ON RRP</text>

  <text x="60" y="714" font-family="Arial, Helvetica, sans-serif" font-size="14" fill="#6b7280">Lower chart indexes each component to 100 on 2025-09-25. Latest component dates: Fed 2026-09-30, TGA 2026-10-06, RRP 2026-10-07.</text>
  <text x="60" y="736" font-family="Arial, Helvetica, sans-serif" font-size="14" fill="#6b7280">Source pages: Federal Reserve H.4.1, Treasury DTS, New York Fed reverse repo operations.</text>
</svg>
