<svg xmlns="http://www.w3.org/2000/svg" width="1280" height="760" viewBox="0 0 1280 760">
  <rect width="100%" height="100%" fill="#f7f3ea"/>
  <text x="60" y="58" font-family="Arial, Helvetica, sans-serif" font-size="30" font-weight="700" fill="#1f2933">Fed / TGA / ON RRP Liquidity</text>
  <text x="60" y="91" font-family="Arial, Helvetica, sans-serif" font-size="18" fill="#6b7280">Net liquidity in USD trillions; components indexed to compare trends.</text>
  <text x="60" y="121" font-family="Arial, Helvetica, sans-serif" font-size="18" fill="#167c6b" font-weight="700">Latest: 5.816T</text>
  <text x="210" y="121" font-family="Arial, Helvetica, sans-serif" font-size="15" fill="#6b7280">date range: 2025-06-17 to 2026-07-01 | updated: 2026-07-02T00:03:55.388250Z</text>

  <line x1="90" y1="145.0" x2="1210" y2="145.0" stroke="#d8d2c4" stroke-width="1"/><line x1="90" y1="213.8" x2="1210" y2="213.8" stroke="#d8d2c4" stroke-width="1"/><line x1="90" y1="282.5" x2="1210" y2="282.5" stroke="#d8d2c4" stroke-width="1"/><line x1="90" y1="351.2" x2="1210" y2="351.2" stroke="#d8d2c4" stroke-width="1"/><line x1="90" y1="420.0" x2="1210" y2="420.0" stroke="#d8d2c4" stroke-width="1"/><line x1="90" y1="500.0" x2="1210" y2="500.0" stroke="#d8d2c4" stroke-width="1"/><line x1="90" y1="582.5" x2="1210" y2="582.5" stroke="#d8d2c4" stroke-width="1"/><line x1="90" y1="665.0" x2="1210" y2="665.0" stroke="#d8d2c4" stroke-width="1"/>
  <line x1="90.0" y1="145" x2="90.0" y2="420" stroke="#d8d2c4" stroke-width="1"/><line x1="90.0" y1="500" x2="90.0" y2="665" stroke="#d8d2c4" stroke-width="1"/><line x1="90.0" y1="420" x2="90.0" y2="427" stroke="#9b9383" stroke-width="1"/><text x="90.0" y="445" font-family="Arial, Helvetica, sans-serif" font-size="12" fill="#6b7280" text-anchor="middle">2025-06-17</text><line x1="131.4" y1="145" x2="131.4" y2="420" stroke="#d8d2c4" stroke-width="1"/><line x1="131.4" y1="500" x2="131.4" y2="665" stroke="#d8d2c4" stroke-width="1"/><line x1="131.4" y1="420" x2="131.4" y2="427" stroke="#9b9383" stroke-width="1"/><text x="131.4" y="445" font-family="Arial, Helvetica, sans-serif" font-size="12" fill="#6b7280" text-anchor="middle">2025-07</text><line x1="223.0" y1="145" x2="223.0" y2="420" stroke="#d8d2c4" stroke-width="1"/><line x1="223.0" y1="500" x2="223.0" y2="665" stroke="#d8d2c4" stroke-width="1"/><line x1="223.0" y1="420" x2="223.0" y2="427" stroke="#9b9383" stroke-width="1"/><text x="223.0" y="445" font-family="Arial, Helvetica, sans-serif" font-size="12" fill="#6b7280" text-anchor="middle">2025-08</text><line x1="314.6" y1="145" x2="314.6" y2="420" stroke="#d8d2c4" stroke-width="1"/><line x1="314.6" y1="500" x2="314.6" y2="665" stroke="#d8d2c4" stroke-width="1"/><line x1="314.6" y1="420" x2="314.6" y2="427" stroke="#9b9383" stroke-width="1"/><text x="314.6" y="445" font-family="Arial, Helvetica, sans-serif" font-size="12" fill="#6b7280" text-anchor="middle">2025-09</text><line x1="403.2" y1="145" x2="403.2" y2="420" stroke="#d8d2c4" stroke-width="1"/><line x1="403.2" y1="500" x2="403.2" y2="665" stroke="#d8d2c4" stroke-width="1"/><line x1="403.2" y1="420" x2="403.2" y2="427" stroke="#9b9383" stroke-width="1"/><text x="403.2" y="445" font-family="Arial, Helvetica, sans-serif" font-size="12" fill="#6b7280" text-anchor="middle">2025-10</text><line x1="494.9" y1="145" x2="494.9" y2="420" stroke="#d8d2c4" stroke-width="1"/><line x1="494.9" y1="500" x2="494.9" y2="665" stroke="#d8d2c4" stroke-width="1"/><line x1="494.9" y1="420" x2="494.9" y2="427" stroke="#9b9383" stroke-width="1"/><text x="494.9" y="445" font-family="Arial, Helvetica, sans-serif" font-size="12" fill="#6b7280" text-anchor="middle">2025-11</text><line x1="583.5" y1="145" x2="583.5" y2="420" stroke="#d8d2c4" stroke-width="1"/><line x1="583.5" y1="500" x2="583.5" y2="665" stroke="#d8d2c4" stroke-width="1"/><line x1="583.5" y1="420" x2="583.5" y2="427" stroke="#9b9383" stroke-width="1"/><text x="583.5" y="445" font-family="Arial, Helvetica, sans-serif" font-size="12" fill="#6b7280" text-anchor="middle">2025-12</text><line x1="675.1" y1="145" x2="675.1" y2="420" stroke="#d8d2c4" stroke-width="1"/><line x1="675.1" y1="500" x2="675.1" y2="665" stroke="#d8d2c4" stroke-width="1"/><line x1="675.1" y1="420" x2="675.1" y2="427" stroke="#9b9383" stroke-width="1"/><text x="675.1" y="445" font-family="Arial, Helvetica, sans-serif" font-size="12" fill="#6b7280" text-anchor="middle">2026-01</text><line x1="766.7" y1="145" x2="766.7" y2="420" stroke="#d8d2c4" stroke-width="1"/><line x1="766.7" y1="500" x2="766.7" y2="665" stroke="#d8d2c4" stroke-width="1"/><line x1="766.7" y1="420" x2="766.7" y2="427" stroke="#9b9383" stroke-width="1"/><text x="766.7" y="445" font-family="Arial, Helvetica, sans-serif" font-size="12" fill="#6b7280" text-anchor="middle">2026-02</text><line x1="849.5" y1="145" x2="849.5" y2="420" stroke="#d8d2c4" stroke-width="1"/><line x1="849.5" y1="500" x2="849.5" y2="665" stroke="#d8d2c4" stroke-width="1"/><line x1="849.5" y1="420" x2="849.5" y2="427" stroke="#9b9383" stroke-width="1"/><text x="849.5" y="445" font-family="Arial, Helvetica, sans-serif" font-size="12" fill="#6b7280" text-anchor="middle">2026-03</text><line x1="941.1" y1="145" x2="941.1" y2="420" stroke="#d8d2c4" stroke-width="1"/><line x1="941.1" y1="500" x2="941.1" y2="665" stroke="#d8d2c4" stroke-width="1"/><line x1="941.1" y1="420" x2="941.1" y2="427" stroke="#9b9383" stroke-width="1"/><text x="941.1" y="445" font-family="Arial, Helvetica, sans-serif" font-size="12" fill="#6b7280" text-anchor="middle">2026-04</text><line x1="1029.7" y1="145" x2="1029.7" y2="420" stroke="#d8d2c4" stroke-width="1"/><line x1="1029.7" y1="500" x2="1029.7" y2="665" stroke="#d8d2c4" stroke-width="1"/><line x1="1029.7" y1="420" x2="1029.7" y2="427" stroke="#9b9383" stroke-width="1"/><text x="1029.7" y="445" font-family="Arial, Helvetica, sans-serif" font-size="12" fill="#6b7280" text-anchor="middle">2026-05</text><line x1="1121.3" y1="145" x2="1121.3" y2="420" stroke="#d8d2c4" stroke-width="1"/><line x1="1121.3" y1="500" x2="1121.3" y2="665" stroke="#d8d2c4" stroke-width="1"/><line x1="1121.3" y1="420" x2="1121.3" y2="427" stroke="#9b9383" stroke-width="1"/><text x="1121.3" y="445" font-family="Arial, Helvetica, sans-serif" font-size="12" fill="#6b7280" text-anchor="middle">2026-06</text><line x1="1210.0" y1="145" x2="1210.0" y2="420" stroke="#d8d2c4" stroke-width="1"/><line x1="1210.0" y1="500" x2="1210.0" y2="665" stroke="#d8d2c4" stroke-width="1"/><line x1="1210.0" y1="420" x2="1210.0" y2="427" stroke="#9b9383" stroke-width="1"/><text x="1210.0" y="445" font-family="Arial, Helvetica, sans-serif" font-size="12" fill="#6b7280" text-anchor="middle">2026-07-01</text>
  <rect x="90" y="145" width="1120" height="275" fill="none" stroke="#b8b0a0" stroke-width="1"/>
  <text x="30" y="151" font-family="Arial, Helvetica, sans-serif" font-size="14" fill="#6b7280">6.44T</text>
  <text x="30" y="420" font-family="Arial, Helvetica, sans-serif" font-size="14" fill="#6b7280">5.52T</text>
  <text x="90" y="127" font-family="Arial, Helvetica, sans-serif" font-size="16" font-weight="700" fill="#1f2933">Net liquidity</text>
  <polyline fill="none" stroke="#167c6b" stroke-width="4" stroke-linejoin="round" stroke-linecap="round" points="90.0,197.3 93.0,188.6 98.9,183.4 107.7,185.8 110.7,180.9 113.6,179.5 116.6,170.6 119.6,180.6 128.4,216.2 131.4,189.4 134.3,191.5 137.3,173.9 149.1,179.7 152.1,182.8 155.0,172.6 158.0,165.8 160.9,164.0 169.8,168.7 172.7,177.6 175.7,173.6 178.7,175.1 181.6,174.7 190.5,175.8 193.4,183.6 196.4,180.5 199.3,185.2 202.3,184.9 211.2,189.2 214.1,205.7 217.1,210.7 220.0,234.1 223.0,198.2 231.8,202.7 234.8,222.6 237.8,224.6 240.7,232.8 243.7,232.6 252.5,236.6 255.5,248.9 258.4,239.1 261.4,249.1 264.4,232.4 273.2,240.3 276.2,253.2 279.1,249.8 282.1,260.3 285.0,266.4 293.9,270.5 296.9,281.7 299.8,275.1 302.8,279.3 305.7,263.0 317.5,303.3 320.5,295.3 323.5,297.5 326.4,296.5 335.3,300.8 338.2,303.8 341.2,295.8 344.1,300.3 347.1,307.8 356.0,352.6 358.9,342.5 361.9,336.7 364.8,339.5 367.8,340.1 376.6,341.3 379.6,329.1 382.6,322.1 385.5,323.0 388.5,330.6 397.3,336.4 400.3,361.8 403.2,346.8 406.2,348.2 409.2,340.5 418.0,345.6 421.0,348.1 423.9,338.1 426.9,338.7 429.8,338.3 441.7,352.3 444.6,353.8 447.6,368.0 450.5,369.7 459.4,369.8 462.3,376.9 465.3,371.7 468.3,383.6 471.2,382.9 480.1,389.6 483.0,395.6 486.0,396.0 488.9,401.0 491.9,378.8 500.8,378.4 503.7,382.8 506.7,388.0 509.6,391.2 512.6,390.1 521.5,394.7 527.4,385.8 530.3,391.4 533.3,390.6 542.1,380.4 545.1,381.4 548.0,380.7 551.0,383.3 554.0,378.1 562.8,382.4 565.8,389.9 568.7,381.2 574.6,398.0 583.5,395.7 586.5,392.0 589.4,388.8 592.4,379.9 595.3,377.4 604.2,380.3 607.2,367.5 610.1,357.1 613.1,353.1 616.0,353.1 624.9,389.1 627.8,381.4 630.8,368.4 633.7,362.8 636.7,362.0 645.6,371.6 648.5,357.4 651.5,343.2 657.4,352.9 666.3,360.4 669.2,350.7 672.2,346.8 678.1,319.4 686.9,325.3 689.9,316.6 692.8,340.2 695.8,337.2 698.8,337.6 707.6,344.3 710.6,339.3 713.5,335.8 716.5,354.9 719.4,363.0 731.3,372.5 734.2,363.1 737.2,368.2 740.1,371.8 749.0,384.7 752.0,394.1 754.9,386.5 757.9,391.1 760.8,368.8 769.7,370.2 772.6,373.1 775.6,367.6 778.5,369.7 781.5,366.9 790.4,370.6 793.3,379.8 796.3,363.5 799.2,366.7 802.2,364.5 814.0,367.7 817.0,359.7 819.9,364.5 822.9,361.1 831.7,359.5 834.7,363.4 837.7,344.7 840.6,347.8 843.6,332.7 852.4,354.4 855.4,350.9 858.3,342.6 861.3,340.7 864.2,338.4 873.1,346.0 876.1,347.3 879.0,325.1 882.0,326.1 884.9,325.2 893.8,364.4 896.8,362.1 899.7,343.1 902.7,345.2 905.6,341.6 914.5,353.2 917.4,343.2 920.4,331.3 923.4,327.0 926.3,334.6 935.2,340.6 938.1,347.9 941.1,315.7 944.0,307.5 947.0,300.9 955.9,307.3 958.8,293.2 961.8,278.3 964.7,275.3 967.7,280.2 976.5,296.8 979.5,303.0 982.5,342.8 985.4,356.7 988.4,365.0 997.2,376.7 1000.2,374.2 1003.1,367.0 1006.1,355.8 1009.1,357.2 1017.9,365.6 1020.9,362.0 1023.8,363.5 1026.8,357.9 1029.7,324.4 1038.6,331.2 1041.6,325.3 1044.5,323.2 1047.5,318.4 1050.4,316.1 1059.3,320.8 1062.2,317.6 1065.2,301.0 1068.2,299.5 1071.1,286.4 1080.0,294.5 1082.9,305.4 1085.9,297.8 1088.8,299.0 1091.8,310.8 1103.6,327.5 1106.6,318.7 1109.5,320.8 1112.5,337.0 1121.3,323.0 1124.3,325.7 1127.3,317.5 1130.2,317.1 1133.2,311.5 1142.0,317.1 1145.0,312.9 1147.9,300.0 1150.9,299.5 1153.9,304.5 1162.7,353.4 1165.7,353.8 1168.6,343.2 1171.6,330.8 1183.4,339.1 1186.4,334.0 1189.3,327.1 1192.3,318.0 1195.2,325.2 1204.1,319.6 1207.0,332.2 1210.0,332.2"/>

  <rect x="90" y="500" width="1120" height="165" fill="none" stroke="#b8b0a0" stroke-width="1"/>
  <text x="90" y="480" font-family="Arial, Helvetica, sans-serif" font-size="16" font-weight="700" fill="#1f2933">Components trend (start = 100)</text>
  <polyline fill="none" stroke="#2f6fbb" stroke-width="3" stroke-linejoin="round" stroke-linecap="round" points="90.0,601.5 93.0,601.4 98.9,601.4 107.7,601.4 110.7,601.4 113.6,601.6 116.6,601.6 119.6,601.6 128.4,601.6 131.4,601.6 134.3,601.6 137.3,601.6 149.1,601.6 152.1,601.6 155.0,601.6 158.0,601.6 160.9,601.6 169.8,601.6 172.7,601.6 175.7,601.6 178.7,601.6 181.6,601.6 190.5,601.6 193.4,601.6 196.4,601.6 199.3,601.6 202.3,601.6 211.2,601.6 214.1,601.6 217.1,601.8 220.0,601.8 223.0,601.8 231.8,601.8 234.8,601.8 237.8,601.8 240.7,601.8 243.7,601.8 252.5,601.8 255.5,601.8 258.4,601.7 261.4,601.7 264.4,601.7 273.2,601.7 276.2,601.7 279.1,601.9 282.1,601.9 285.0,601.9 293.9,601.9 296.9,601.9 299.8,602.1 302.8,602.1 305.7,602.1 317.5,602.1 320.5,602.1 323.5,602.1 326.4,602.1 335.3,602.1 338.2,602.1 341.2,602.0 344.1,602.0 347.1,602.0 356.0,602.0 358.9,602.0 361.9,602.0 364.8,602.0 367.8,602.0 376.6,602.0 379.6,602.0 382.6,602.0 385.5,602.0 388.5,602.0 397.3,602.0 400.3,602.0 403.2,602.2 406.2,602.2 409.2,602.2 418.0,602.2 421.0,602.2 423.9,602.2 426.9,602.2 429.8,602.2 441.7,602.2 444.6,602.1 447.6,602.1 450.5,602.1 459.4,602.1 462.3,602.1 465.3,602.2 468.3,602.2 471.2,602.2 480.1,602.2 483.0,602.2 486.0,602.2 488.9,602.2 491.9,602.2 500.8,602.2 503.7,602.2 506.7,602.3 509.6,602.3 512.6,602.3 521.5,602.3 527.4,602.2 530.3,602.2 533.3,602.2 542.1,602.2 545.1,602.2 548.0,602.4 551.0,602.4 554.0,602.4 562.8,602.4 565.8,602.4 568.7,602.5 574.6,602.5 583.5,602.5 586.5,602.5 589.4,602.6 592.4,602.6 595.3,602.6 604.2,602.6 607.2,602.6 610.1,602.6 613.1,602.6 616.0,602.6 624.9,602.6 627.8,602.6 630.8,602.4 633.7,602.4 636.7,602.4 645.6,602.4 648.5,602.4 651.5,602.2 657.4,602.2 666.3,602.2 669.2,602.2 672.2,601.8 678.1,601.8 686.9,601.8 689.9,601.8 692.8,602.3 695.8,602.3 698.8,602.3 707.6,602.3 710.6,602.3 713.5,602.2 716.5,602.2 719.4,602.2 731.3,602.2 734.2,602.2 737.2,602.2 740.1,602.2 749.0,602.2 752.0,602.2 754.9,602.2 757.9,602.2 760.8,602.2 769.7,602.2 772.6,602.2 775.6,602.0 778.5,602.0 781.5,602.0 790.4,602.0 793.3,602.0 796.3,601.9 799.2,601.9 802.2,601.9 814.0,601.9 817.0,602.0 819.9,602.0 822.9,602.0 831.7,602.0 834.7,602.0 837.7,602.0 840.6,602.0 843.6,602.0 852.4,602.0 855.4,602.0 858.3,601.9 861.3,601.9 864.2,601.9 873.1,601.9 876.1,601.9 879.0,601.7 882.0,601.7 884.9,601.7 893.8,601.7 896.8,601.7 899.7,601.6 902.7,601.6 905.6,601.6 914.5,601.6 917.4,601.6 920.4,601.6 923.4,601.6 926.3,601.6 935.2,601.6 938.1,601.6 941.1,601.5 944.0,601.5 947.0,601.5 955.9,601.5 958.8,601.5 961.8,601.3 964.7,601.3 967.7,601.3 976.5,601.3 979.5,601.3 982.5,601.3 985.4,601.3 988.4,601.3 997.2,601.3 1000.2,601.3 1003.1,601.2 1006.1,601.2 1009.1,601.2 1017.9,601.2 1020.9,601.2 1023.8,601.3 1026.8,601.3 1029.7,601.3 1038.6,601.3 1041.6,601.3 1044.5,601.2 1047.5,601.2 1050.4,601.2 1059.3,601.2 1062.2,601.2 1065.2,601.1 1068.2,601.1 1071.1,601.1 1080.0,601.1 1082.9,601.1 1085.9,601.2 1088.8,601.2 1091.8,601.2 1103.6,601.2 1106.6,601.3 1109.5,601.3 1112.5,601.3 1121.3,601.3 1124.3,601.3 1127.3,601.2 1130.2,601.2 1133.2,601.2 1142.0,601.2 1145.0,601.2 1147.9,601.1 1150.9,601.1 1153.9,601.1 1162.7,601.1 1165.7,601.1 1168.6,601.0 1171.6,601.0 1183.4,601.0 1186.4,601.0 1189.3,601.0 1192.3,601.0 1195.2,601.0 1204.1,601.0 1207.0,601.0 1210.0,601.0"/>
  <polyline fill="none" stroke="#b7791f" stroke-width="3" stroke-linejoin="round" stroke-linecap="round" points="90.0,601.5 93.0,604.7 98.9,606.9 107.7,605.9 110.7,608.0 113.6,611.0 116.6,614.8 119.6,610.5 128.4,595.4 131.4,606.8 134.3,606.2 137.3,613.7 149.1,611.3 152.1,609.9 155.0,614.0 158.0,616.9 160.9,617.6 169.8,615.6 172.7,611.8 175.7,613.9 178.7,613.2 181.6,613.4 190.5,612.9 193.4,609.6 196.4,611.1 199.3,609.1 202.3,609.3 211.2,607.4 214.1,600.4 217.1,600.2 220.0,590.2 223.0,605.5 231.8,603.6 234.8,595.1 237.8,594.4 240.7,591.0 243.7,591.0 252.5,589.3 255.5,584.1 258.4,587.9 261.4,583.6 264.4,590.8 273.2,587.4 276.2,581.9 279.1,586.6 282.1,582.1 285.0,579.5 293.9,577.7 296.9,573.0 299.8,577.7 302.8,575.9 305.7,582.9 317.5,565.7 320.5,569.2 323.5,568.3 326.4,568.7 335.3,566.9 338.2,565.6 341.2,568.5 344.1,566.6 347.1,563.4 356.0,544.3 358.9,548.6 361.9,550.7 364.8,549.5 367.8,549.3 376.6,548.8 379.6,554.0 382.6,557.0 385.5,556.6 388.5,553.4 397.3,550.9 400.3,540.1 403.2,549.2 406.2,548.6 409.2,551.9 418.0,549.7 421.0,548.6 423.9,552.4 426.9,552.2 429.8,552.4 441.7,546.4 444.6,545.0 447.6,538.9 450.5,538.2 459.4,538.2 462.3,535.2 465.3,538.2 468.3,533.2 471.2,533.5 480.1,530.6 483.0,528.1 486.0,528.2 488.9,526.1 491.9,535.5 500.8,535.7 503.7,533.8 506.7,533.5 509.6,532.1 512.6,532.5 521.5,530.6 527.4,533.4 530.3,531.0 533.3,531.4 542.1,535.7 545.1,535.3 548.0,538.8 551.0,537.7 554.0,539.9 562.8,538.1 565.8,534.8 568.7,538.9 574.6,531.8 583.5,532.8 586.5,534.3 589.4,537.8 592.4,541.6 595.3,542.7 604.2,541.4 607.2,546.9 610.1,550.9 613.1,552.6 616.0,552.6 624.9,537.2 627.8,540.5 630.8,543.8 633.7,546.2 636.7,546.6 645.6,542.5 648.5,548.5 651.5,551.4 657.4,547.3 666.3,544.1 669.2,548.3 672.2,542.4 678.1,554.0 686.9,551.5 689.9,555.2 692.8,553.7 695.8,555.0 698.8,554.8 707.6,552.0 710.6,554.1 713.5,554.6 716.5,546.4 719.4,542.9 731.3,538.9 734.2,542.6 737.2,540.4 740.1,538.8 749.0,533.3 752.0,529.4 754.9,532.2 757.9,530.2 760.8,539.8 769.7,539.2 772.6,537.9 775.6,537.9 778.5,537.0 781.5,538.2 790.4,536.7 793.3,532.7 796.3,537.6 799.2,536.2 802.2,537.2 814.0,535.8 817.0,540.3 819.9,538.3 822.9,539.7 831.7,540.4 834.7,538.7 837.7,546.7 840.6,545.3 843.6,551.8 852.4,542.5 855.4,544.0 858.3,545.7 861.3,546.4 864.2,547.4 873.1,544.2 876.1,543.6 879.0,550.9 882.0,550.5 884.9,550.8 893.8,534.1 896.8,535.1 899.7,542.0 902.7,541.1 905.6,542.6 914.5,537.7 917.4,541.9 920.4,546.9 923.4,548.7 926.3,545.4 935.2,542.9 938.1,539.8 941.1,551.2 944.0,554.7 947.0,557.5 955.9,554.8 958.8,560.8 961.8,564.8 964.7,566.1 967.7,564.0 976.5,556.9 979.5,554.3 982.5,535.8 985.4,529.8 988.4,526.3 997.2,521.3 1000.2,522.4 1003.1,525.2 1006.1,530.0 1009.1,529.4 1017.9,525.8 1020.9,527.4 1023.8,527.7 1026.8,530.0 1029.7,544.3 1038.6,541.4 1041.6,544.0 1044.5,543.6 1047.5,545.7 1050.4,546.7 1059.3,544.7 1062.2,546.0 1065.2,550.7 1068.2,551.3 1071.1,556.9 1080.0,553.4 1082.9,548.8 1085.9,553.9 1088.8,553.4 1091.8,548.4 1103.6,541.3 1106.6,546.2 1109.5,545.3 1112.5,538.4 1121.3,544.4 1124.3,543.2 1127.3,545.8 1130.2,546.0 1133.2,548.4 1142.0,546.0 1145.0,547.8 1147.9,551.5 1150.9,551.7 1153.9,549.6 1162.7,528.7 1165.7,528.6 1168.6,531.7 1171.6,537.0 1183.4,533.4 1186.4,535.6 1189.3,538.7 1192.3,542.5 1195.2,539.5 1204.1,541.8 1207.0,536.5 1210.0,536.5"/>
  <polyline fill="none" stroke="#b83242" stroke-width="3" stroke-linejoin="round" stroke-linecap="round" points="90.0,601.5 93.0,590.3 98.9,610.9 107.7,602.6 110.7,595.8 113.6,588.5 116.6,575.7 119.6,565.4 128.4,511.4 131.4,577.8 134.3,580.4 137.3,587.4 149.1,586.3 152.1,585.9 155.0,583.5 158.0,597.0 160.9,597.6 169.8,586.4 172.7,592.4 175.7,592.8 178.7,593.8 181.6,592.1 190.5,587.7 193.4,593.0 196.4,595.1 199.3,612.8 202.3,607.2 211.2,601.0 214.1,600.8 217.1,605.6 220.0,587.4 223.0,623.6 231.8,614.8 234.8,627.6 237.8,625.2 240.7,629.6 243.7,628.8 252.5,628.3 255.5,635.9 258.4,636.0 261.4,644.7 264.4,643.2 273.2,641.8 276.2,646.7 279.1,642.8 282.1,645.8 285.0,642.4 293.9,639.0 296.9,644.8 299.8,642.9 302.8,643.8 305.7,629.6 317.5,647.1 320.5,648.1 323.5,647.4 326.4,647.2 335.3,647.7 338.2,646.6 341.2,644.6 344.1,645.3 347.1,648.3 356.0,648.4 358.9,647.8 361.9,649.3 364.8,649.4 367.8,650.1 376.6,649.3 379.6,649.2 382.6,644.6 385.5,645.8 388.5,638.8 397.3,636.3 400.3,638.5 403.2,650.5 406.2,651.0 409.2,645.8 418.0,646.9 421.0,652.2 423.9,652.0 426.9,652.3 429.8,652.4 441.7,652.6 444.6,652.0 447.6,651.5 450.5,652.4 459.4,651.8 462.3,652.2 465.3,652.4 468.3,651.5 471.2,652.9 480.1,650.4 483.0,649.3 486.0,647.6 488.9,647.7 491.9,637.7 500.8,646.3 503.7,648.4 506.7,649.7 509.6,650.3 512.6,652.1 521.5,651.4 527.4,651.8 530.3,652.5 533.3,653.2 542.1,652.7 545.1,653.4 548.0,653.3 551.0,651.6 554.0,652.9 562.8,653.3 565.8,652.9 568.7,653.0 574.6,651.3 583.5,652.6 586.5,651.9 589.4,652.9 592.4,653.0 595.3,653.2 604.2,653.1 607.2,652.7 610.1,652.1 613.1,652.8 616.0,653.4 624.9,652.8 627.8,653.2 630.8,650.4 633.7,650.0 636.7,652.7 645.6,653.2 648.5,651.8 651.5,652.2 657.4,647.4 666.3,650.4 669.2,649.8 672.2,620.9 678.1,651.9 686.9,651.6 689.9,652.8 692.8,652.2 695.8,652.7 698.8,652.6 707.6,652.6 710.6,652.6 713.5,652.7 716.5,653.0 719.4,653.3 731.3,652.6 734.2,652.6 737.2,653.0 740.1,653.4 749.0,653.2 752.0,653.3 754.9,653.3 757.9,652.8 760.8,650.7 769.7,650.4 772.6,653.1 775.6,652.9 778.5,653.1 781.5,652.7 790.4,653.2 793.3,653.2 796.3,653.3 799.2,652.8 802.2,653.5 814.0,653.5 817.0,653.4 819.9,653.5 822.9,653.5 831.7,653.4 834.7,653.4 837.7,653.3 840.6,652.5 843.6,648.6 852.4,653.5 855.4,653.3 858.3,653.4 861.3,652.8 864.2,653.2 873.1,653.5 876.1,653.6 879.0,653.5 882.0,653.6 884.9,653.5 893.8,653.5 896.8,653.4 899.7,653.4 902.7,653.4 905.6,653.4 914.5,653.4 917.4,653.3 920.4,653.4 923.4,653.4 926.3,653.3 935.2,653.4 938.1,648.8 941.1,653.0 944.0,653.5 947.0,653.5 955.9,653.6 958.8,648.9 961.8,653.6 964.7,653.5 967.7,653.5 976.5,653.6 979.5,653.6 982.5,653.6 985.4,653.6 988.4,653.6 997.2,653.5 1000.2,653.4 1003.1,653.5 1006.1,653.6 1009.1,653.6 1017.9,653.5 1020.9,653.4 1023.8,653.4 1026.8,651.1 1029.7,653.5 1038.6,653.5 1041.6,653.3 1044.5,653.1 1047.5,653.4 1050.4,653.4 1059.3,653.3 1062.2,653.3 1065.2,652.5 1068.2,653.0 1071.1,653.4 1080.0,651.4 1082.9,649.7 1085.9,646.0 1088.8,652.6 1091.8,653.3 1103.6,653.1 1106.6,653.1 1109.5,653.3 1112.5,650.0 1121.3,653.2 1124.3,652.9 1127.3,653.0 1130.2,653.3 1133.2,653.4 1142.0,653.1 1145.0,653.5 1147.9,653.5 1150.9,653.5 1153.9,653.5 1162.7,653.5 1165.7,650.3 1168.6,651.5 1171.6,653.6 1183.4,652.4 1186.4,651.6 1189.3,652.2 1192.3,651.9 1195.2,651.7 1204.1,652.6 1207.0,645.3 1210.0,653.3"/>
  <text x="30" y="506" font-family="Arial, Helvetica, sans-serif" font-size="14" fill="#6b7280">294.5</text>
  <text x="30" y="665" font-family="Arial, Helvetica, sans-serif" font-size="14" fill="#6b7280">-21.8</text>
  <circle cx="875" cy="466" r="6" fill="#2f6fbb"/><text x="890" y="471" font-family="Arial, Helvetica, sans-serif" font-size="15" fill="#1f2933">Fed assets</text>
  <circle cx="985" cy="466" r="6" fill="#b7791f"/><text x="1000" y="471" font-family="Arial, Helvetica, sans-serif" font-size="15" fill="#1f2933">TGA</text>
  <circle cx="1055" cy="466" r="6" fill="#b83242"/><text x="1070" y="471" font-family="Arial, Helvetica, sans-serif" font-size="15" fill="#1f2933">ON RRP</text>

  <text x="60" y="714" font-family="Arial, Helvetica, sans-serif" font-size="14" fill="#6b7280">Lower chart indexes each component to 100 on 2025-06-17. Latest component dates: Fed 2026-06-24, TGA 2026-06-30, RRP 2026-07-01.</text>
  <text x="60" y="736" font-family="Arial, Helvetica, sans-serif" font-size="14" fill="#6b7280">Source pages: Federal Reserve H.4.1, Treasury DTS, New York Fed reverse repo operations.</text>
</svg>
