<svg xmlns="http://www.w3.org/2000/svg" width="1280" height="760" viewBox="0 0 1280 760">
  <rect width="100%" height="100%" fill="#f7f3ea"/>
  <text x="60" y="58" font-family="Arial, Helvetica, sans-serif" font-size="30" font-weight="700" fill="#1f2933">Fed / TGA / ON RRP Liquidity</text>
  <text x="60" y="91" font-family="Arial, Helvetica, sans-serif" font-size="18" fill="#6b7280">Net liquidity in USD trillions; components indexed to compare trends.</text>
  <text x="60" y="121" font-family="Arial, Helvetica, sans-serif" font-size="18" fill="#167c6b" font-weight="700">Latest: 5.859T</text>
  <text x="210" y="121" font-family="Arial, Helvetica, sans-serif" font-size="15" fill="#6b7280">date range: 2025-05-21 to 2026-06-04 | updated: 2026-06-05T00:04:08.118825Z</text>

  <line x1="90" y1="145.0" x2="1210" y2="145.0" stroke="#d8d2c4" stroke-width="1"/><line x1="90" y1="213.8" x2="1210" y2="213.8" stroke="#d8d2c4" stroke-width="1"/><line x1="90" y1="282.5" x2="1210" y2="282.5" stroke="#d8d2c4" stroke-width="1"/><line x1="90" y1="351.2" x2="1210" y2="351.2" stroke="#d8d2c4" stroke-width="1"/><line x1="90" y1="420.0" x2="1210" y2="420.0" stroke="#d8d2c4" stroke-width="1"/><line x1="90" y1="500.0" x2="1210" y2="500.0" stroke="#d8d2c4" stroke-width="1"/><line x1="90" y1="582.5" x2="1210" y2="582.5" stroke="#d8d2c4" stroke-width="1"/><line x1="90" y1="665.0" x2="1210" y2="665.0" stroke="#d8d2c4" stroke-width="1"/>
  <line x1="90.0" y1="145" x2="90.0" y2="420" stroke="#d8d2c4" stroke-width="1"/><line x1="90.0" y1="500" x2="90.0" y2="665" stroke="#d8d2c4" stroke-width="1"/><line x1="90.0" y1="420" x2="90.0" y2="427" stroke="#9b9383" stroke-width="1"/><text x="90.0" y="445" font-family="Arial, Helvetica, sans-serif" font-size="12" fill="#6b7280" text-anchor="middle">2025-05-21</text><line x1="122.5" y1="145" x2="122.5" y2="420" stroke="#d8d2c4" stroke-width="1"/><line x1="122.5" y1="500" x2="122.5" y2="665" stroke="#d8d2c4" stroke-width="1"/><line x1="122.5" y1="420" x2="122.5" y2="427" stroke="#9b9383" stroke-width="1"/><text x="122.5" y="445" font-family="Arial, Helvetica, sans-serif" font-size="12" fill="#6b7280" text-anchor="middle">2025-06</text><line x1="211.2" y1="145" x2="211.2" y2="420" stroke="#d8d2c4" stroke-width="1"/><line x1="211.2" y1="500" x2="211.2" y2="665" stroke="#d8d2c4" stroke-width="1"/><line x1="211.2" y1="420" x2="211.2" y2="427" stroke="#9b9383" stroke-width="1"/><text x="211.2" y="445" font-family="Arial, Helvetica, sans-serif" font-size="12" fill="#6b7280" text-anchor="middle">2025-07</text><line x1="302.8" y1="145" x2="302.8" y2="420" stroke="#d8d2c4" stroke-width="1"/><line x1="302.8" y1="500" x2="302.8" y2="665" stroke="#d8d2c4" stroke-width="1"/><line x1="302.8" y1="420" x2="302.8" y2="427" stroke="#9b9383" stroke-width="1"/><text x="302.8" y="445" font-family="Arial, Helvetica, sans-serif" font-size="12" fill="#6b7280" text-anchor="middle">2025-08</text><line x1="394.4" y1="145" x2="394.4" y2="420" stroke="#d8d2c4" stroke-width="1"/><line x1="394.4" y1="500" x2="394.4" y2="665" stroke="#d8d2c4" stroke-width="1"/><line x1="394.4" y1="420" x2="394.4" y2="427" stroke="#9b9383" stroke-width="1"/><text x="394.4" y="445" font-family="Arial, Helvetica, sans-serif" font-size="12" fill="#6b7280" text-anchor="middle">2025-09</text><line x1="483.0" y1="145" x2="483.0" y2="420" stroke="#d8d2c4" stroke-width="1"/><line x1="483.0" y1="500" x2="483.0" y2="665" stroke="#d8d2c4" stroke-width="1"/><line x1="483.0" y1="420" x2="483.0" y2="427" stroke="#9b9383" stroke-width="1"/><text x="483.0" y="445" font-family="Arial, Helvetica, sans-serif" font-size="12" fill="#6b7280" text-anchor="middle">2025-10</text><line x1="574.6" y1="145" x2="574.6" y2="420" stroke="#d8d2c4" stroke-width="1"/><line x1="574.6" y1="500" x2="574.6" y2="665" stroke="#d8d2c4" stroke-width="1"/><line x1="574.6" y1="420" x2="574.6" y2="427" stroke="#9b9383" stroke-width="1"/><text x="574.6" y="445" font-family="Arial, Helvetica, sans-serif" font-size="12" fill="#6b7280" text-anchor="middle">2025-11</text><line x1="663.3" y1="145" x2="663.3" y2="420" stroke="#d8d2c4" stroke-width="1"/><line x1="663.3" y1="500" x2="663.3" y2="665" stroke="#d8d2c4" stroke-width="1"/><line x1="663.3" y1="420" x2="663.3" y2="427" stroke="#9b9383" stroke-width="1"/><text x="663.3" y="445" font-family="Arial, Helvetica, sans-serif" font-size="12" fill="#6b7280" text-anchor="middle">2025-12</text><line x1="754.9" y1="145" x2="754.9" y2="420" stroke="#d8d2c4" stroke-width="1"/><line x1="754.9" y1="500" x2="754.9" y2="665" stroke="#d8d2c4" stroke-width="1"/><line x1="754.9" y1="420" x2="754.9" y2="427" stroke="#9b9383" stroke-width="1"/><text x="754.9" y="445" font-family="Arial, Helvetica, sans-serif" font-size="12" fill="#6b7280" text-anchor="middle">2026-01</text><line x1="846.5" y1="145" x2="846.5" y2="420" stroke="#d8d2c4" stroke-width="1"/><line x1="846.5" y1="500" x2="846.5" y2="665" stroke="#d8d2c4" stroke-width="1"/><line x1="846.5" y1="420" x2="846.5" y2="427" stroke="#9b9383" stroke-width="1"/><text x="846.5" y="445" font-family="Arial, Helvetica, sans-serif" font-size="12" fill="#6b7280" text-anchor="middle">2026-02</text><line x1="929.3" y1="145" x2="929.3" y2="420" stroke="#d8d2c4" stroke-width="1"/><line x1="929.3" y1="500" x2="929.3" y2="665" stroke="#d8d2c4" stroke-width="1"/><line x1="929.3" y1="420" x2="929.3" y2="427" stroke="#9b9383" stroke-width="1"/><text x="929.3" y="445" font-family="Arial, Helvetica, sans-serif" font-size="12" fill="#6b7280" text-anchor="middle">2026-03</text><line x1="1020.9" y1="145" x2="1020.9" y2="420" stroke="#d8d2c4" stroke-width="1"/><line x1="1020.9" y1="500" x2="1020.9" y2="665" stroke="#d8d2c4" stroke-width="1"/><line x1="1020.9" y1="420" x2="1020.9" y2="427" stroke="#9b9383" stroke-width="1"/><text x="1020.9" y="445" font-family="Arial, Helvetica, sans-serif" font-size="12" fill="#6b7280" text-anchor="middle">2026-04</text><line x1="1109.5" y1="145" x2="1109.5" y2="420" stroke="#d8d2c4" stroke-width="1"/><line x1="1109.5" y1="500" x2="1109.5" y2="665" stroke="#d8d2c4" stroke-width="1"/><line x1="1109.5" y1="420" x2="1109.5" y2="427" stroke="#9b9383" stroke-width="1"/><text x="1109.5" y="445" font-family="Arial, Helvetica, sans-serif" font-size="12" fill="#6b7280" text-anchor="middle">2026-05</text><line x1="1201.1" y1="145" x2="1201.1" y2="420" stroke="#d8d2c4" stroke-width="1"/><line x1="1201.1" y1="500" x2="1201.1" y2="665" stroke="#d8d2c4" stroke-width="1"/><line x1="1201.1" y1="420" x2="1201.1" y2="427" stroke="#9b9383" stroke-width="1"/><text x="1201.1" y="445" font-family="Arial, Helvetica, sans-serif" font-size="12" fill="#6b7280" text-anchor="middle">2026-06</text><line x1="1210.0" y1="145" x2="1210.0" y2="420" stroke="#d8d2c4" stroke-width="1"/><line x1="1210.0" y1="500" x2="1210.0" y2="665" stroke="#d8d2c4" stroke-width="1"/><line x1="1210.0" y1="420" x2="1210.0" y2="427" stroke="#9b9383" stroke-width="1"/><text x="1210.0" y="445" font-family="Arial, Helvetica, sans-serif" font-size="12" fill="#6b7280" text-anchor="middle">2026-06-04</text>
  <rect x="90" y="145" width="1120" height="275" fill="none" stroke="#b8b0a0" stroke-width="1"/>
  <text x="30" y="151" font-family="Arial, Helvetica, sans-serif" font-size="14" fill="#6b7280">6.48T</text>
  <text x="30" y="420" font-family="Arial, Helvetica, sans-serif" font-size="14" fill="#6b7280">5.52T</text>
  <text x="90" y="127" font-family="Arial, Helvetica, sans-serif" font-size="16" font-weight="700" fill="#1f2933">Net liquidity</text>
  <polyline fill="none" stroke="#167c6b" stroke-width="4" stroke-linejoin="round" stroke-linecap="round" points="90.0,222.1 93.0,221.5 95.9,220.6 107.7,222.6 110.7,215.3 113.6,204.8 116.6,191.0 125.5,216.1 128.4,200.0 131.4,198.1 134.3,190.9 137.3,189.2 146.1,193.2 149.1,179.1 152.1,168.6 155.0,164.0 158.0,171.8 166.8,216.9 169.8,206.3 172.7,198.0 178.7,193.0 187.5,195.3 190.5,190.6 193.4,189.3 196.4,180.8 199.3,190.4 208.2,224.4 211.2,198.7 214.1,200.8 217.1,183.9 228.9,189.5 231.8,192.5 234.8,182.7 237.8,176.2 240.7,174.5 249.6,179.0 252.5,187.5 255.5,183.7 258.4,185.1 261.4,184.8 270.3,185.8 273.2,193.2 276.2,190.3 279.1,194.8 282.1,194.4 290.9,198.6 293.9,214.4 296.9,219.2 299.8,241.5 302.8,207.2 311.6,211.5 314.6,230.5 317.5,232.5 320.5,240.3 323.5,240.1 332.3,243.9 335.3,255.6 338.2,246.3 341.2,255.9 344.1,239.9 353.0,247.4 356.0,259.8 358.9,256.5 361.9,266.5 364.8,272.3 373.7,276.3 376.6,287.0 379.6,280.7 382.6,284.7 385.5,269.1 397.3,307.6 400.3,300.0 403.2,302.1 406.2,301.2 415.1,305.2 418.0,308.1 421.0,300.5 423.9,304.8 426.9,312.0 435.8,354.8 438.7,345.1 441.7,339.6 444.6,342.3 447.6,342.8 456.4,344.0 459.4,332.3 462.3,325.6 465.3,326.5 468.3,333.7 477.1,339.2 480.1,363.6 483.0,349.2 486.0,350.5 488.9,343.2 497.8,348.1 500.8,350.5 503.7,340.9 506.7,341.5 509.6,341.0 521.5,354.4 524.4,355.9 527.4,369.5 530.3,371.1 539.2,371.2 542.1,378.0 545.1,373.0 548.0,384.4 551.0,383.7 559.9,390.1 562.8,395.8 565.8,396.2 568.7,401.0 571.7,379.8 580.6,379.4 583.5,383.6 586.5,388.6 589.4,391.7 592.4,390.6 601.2,395.0 607.2,386.5 610.1,391.9 613.1,391.0 621.9,381.3 624.9,382.3 627.8,381.6 630.8,384.1 633.7,379.1 642.6,383.2 645.6,390.4 648.5,382.1 654.4,398.2 663.3,395.9 666.3,392.4 669.2,389.4 672.2,380.8 675.1,378.4 684.0,381.2 686.9,369.0 689.9,359.0 692.8,355.3 695.8,355.2 704.7,389.6 707.6,382.3 710.6,369.9 713.5,364.5 716.5,363.7 725.4,372.9 728.3,359.3 731.3,345.8 737.2,355.0 746.0,362.2 749.0,352.9 752.0,349.2 757.9,323.0 766.7,328.7 769.7,320.4 772.6,342.9 775.6,340.0 778.5,340.4 787.4,346.8 790.4,342.1 793.3,338.7 796.3,356.9 799.2,364.7 811.1,373.8 814.0,364.7 817.0,369.7 819.9,373.1 828.8,385.5 831.7,394.4 834.7,387.2 837.7,391.6 840.6,370.2 849.5,371.6 852.4,374.4 855.4,369.1 858.3,371.0 861.3,368.4 870.2,371.9 873.1,380.8 876.1,365.2 879.0,368.2 882.0,366.1 893.8,369.2 896.8,361.6 899.7,366.1 902.7,362.9 911.5,361.4 914.5,365.1 917.4,347.2 920.4,350.2 923.4,335.8 932.2,356.5 935.2,353.1 938.1,345.2 941.1,343.4 944.0,341.2 952.9,348.5 955.9,349.7 958.8,328.4 961.8,329.4 964.7,328.6 973.6,366.1 976.5,363.8 979.5,345.7 982.5,347.7 985.4,344.3 994.3,355.3 997.2,345.8 1000.2,334.4 1003.1,330.3 1006.1,337.6 1015.0,343.2 1017.9,350.2 1020.9,319.5 1023.8,311.6 1026.8,305.3 1035.6,311.5 1038.6,298.0 1041.6,283.8 1044.5,280.9 1047.5,285.5 1056.3,301.4 1059.3,307.3 1062.2,345.4 1065.2,358.7 1068.2,366.6 1077.0,377.8 1080.0,375.4 1082.9,368.5 1085.9,357.8 1088.8,359.1 1097.7,367.1 1100.7,363.7 1103.6,365.2 1106.6,359.8 1109.5,327.8 1118.4,334.3 1121.3,328.7 1124.3,326.6 1127.3,322.0 1130.2,319.9 1139.1,324.3 1142.0,321.3 1145.0,305.4 1147.9,304.0 1150.9,291.5 1159.8,299.3 1162.7,309.7 1165.7,302.4 1168.6,303.5 1171.6,314.8 1183.4,330.8 1186.4,322.4 1189.3,324.4 1192.3,339.9 1201.1,326.4 1204.1,329.1 1207.0,323.2 1210.0,323.2"/>

  <rect x="90" y="500" width="1120" height="165" fill="none" stroke="#b8b0a0" stroke-width="1"/>
  <text x="90" y="480" font-family="Arial, Helvetica, sans-serif" font-size="16" font-weight="700" fill="#1f2933">Components trend (start = 100)</text>
  <polyline fill="none" stroke="#2f6fbb" stroke-width="3" stroke-linejoin="round" stroke-linecap="round" points="90.0,603.4 93.0,603.4 95.9,603.4 107.7,603.4 110.7,603.5 113.6,603.5 116.6,603.5 125.5,603.5 128.4,603.5 131.4,603.5 134.3,603.5 137.3,603.5 146.1,603.5 149.1,603.5 152.1,603.5 155.0,603.5 158.0,603.5 166.8,603.5 169.8,603.5 172.7,603.4 178.7,603.4 187.5,603.4 190.5,603.4 193.4,603.6 196.4,603.6 199.3,603.6 208.2,603.6 211.2,603.6 214.1,603.6 217.1,603.6 228.9,603.6 231.8,603.6 234.8,603.6 237.8,603.6 240.7,603.6 249.6,603.6 252.5,603.6 255.5,603.6 258.4,603.6 261.4,603.6 270.3,603.6 273.2,603.6 276.2,603.6 279.1,603.6 282.1,603.6 290.9,603.6 293.9,603.6 296.9,603.7 299.8,603.7 302.8,603.7 311.6,603.7 314.6,603.7 317.5,603.7 320.5,603.7 323.5,603.7 332.3,603.7 335.3,603.7 338.2,603.7 341.2,603.7 344.1,603.7 353.0,603.7 356.0,603.7 358.9,603.9 361.9,603.9 364.8,603.9 373.7,603.9 376.6,603.9 379.6,604.0 382.6,604.0 385.5,604.0 397.3,604.0 400.3,604.0 403.2,604.0 406.2,604.0 415.1,604.0 418.0,604.0 421.0,604.0 423.9,604.0 426.9,604.0 435.8,604.0 438.7,604.0 441.7,604.0 444.6,604.0 447.6,604.0 456.4,604.0 459.4,604.0 462.3,604.0 465.3,604.0 468.3,604.0 477.1,604.0 480.1,604.0 483.0,604.1 486.0,604.1 488.9,604.1 497.8,604.1 500.8,604.1 503.7,604.1 506.7,604.1 509.6,604.1 521.5,604.1 524.4,604.1 527.4,604.1 530.3,604.1 539.2,604.1 542.1,604.1 545.1,604.1 548.0,604.1 551.0,604.1 559.9,604.1 562.8,604.1 565.8,604.1 568.7,604.1 571.7,604.1 580.6,604.1 583.5,604.1 586.5,604.2 589.4,604.2 592.4,604.2 601.2,604.2 607.2,604.2 610.1,604.2 613.1,604.2 621.9,604.2 624.9,604.2 627.8,604.4 630.8,604.4 633.7,604.4 642.6,604.4 645.6,604.4 648.5,604.4 654.4,604.4 663.3,604.4 666.3,604.4 669.2,604.5 672.2,604.5 675.1,604.5 684.0,604.5 686.9,604.5 689.9,604.5 692.8,604.5 695.8,604.5 704.7,604.5 707.6,604.5 710.6,604.4 713.5,604.4 716.5,604.4 725.4,604.4 728.3,604.4 731.3,604.2 737.2,604.2 746.0,604.2 749.0,604.2 752.0,603.7 757.9,603.7 766.7,603.7 769.7,603.7 772.6,604.2 775.6,604.2 778.5,604.2 787.4,604.2 790.4,604.2 793.3,604.2 796.3,604.2 799.2,604.2 811.1,604.2 814.0,604.2 817.0,604.2 819.9,604.2 828.8,604.2 831.7,604.2 834.7,604.1 837.7,604.1 840.6,604.1 849.5,604.1 852.4,604.1 855.4,604.0 858.3,604.0 861.3,604.0 870.2,604.0 873.1,604.0 876.1,603.9 879.0,603.9 882.0,603.9 893.8,603.9 896.8,603.9 899.7,603.9 902.7,603.9 911.5,603.9 914.5,603.9 917.4,603.9 920.4,603.9 923.4,603.9 932.2,603.9 935.2,603.9 938.1,603.8 941.1,603.8 944.0,603.8 952.9,603.8 955.9,603.8 958.8,603.7 961.8,603.7 964.7,603.7 973.6,603.7 976.5,603.7 979.5,603.6 982.5,603.6 985.4,603.6 994.3,603.6 997.2,603.6 1000.2,603.6 1003.1,603.6 1006.1,603.6 1015.0,603.6 1017.9,603.6 1020.9,603.5 1023.8,603.5 1026.8,603.5 1035.6,603.5 1038.6,603.5 1041.6,603.3 1044.5,603.3 1047.5,603.3 1056.3,603.3 1059.3,603.3 1062.2,603.2 1065.2,603.2 1068.2,603.2 1077.0,603.2 1080.0,603.2 1082.9,603.2 1085.9,603.2 1088.8,603.2 1097.7,603.2 1100.7,603.2 1103.6,603.3 1106.6,603.3 1109.5,603.3 1118.4,603.3 1121.3,603.3 1124.3,603.2 1127.3,603.2 1130.2,603.2 1139.1,603.2 1142.0,603.2 1145.0,603.1 1147.9,603.1 1150.9,603.1 1159.8,603.1 1162.7,603.1 1165.7,603.2 1168.6,603.2 1171.6,603.2 1183.4,603.2 1186.4,603.3 1189.3,603.3 1192.3,603.3 1201.1,603.3 1204.1,603.3 1207.0,603.3 1210.0,603.3"/>
  <polyline fill="none" stroke="#b7791f" stroke-width="3" stroke-linejoin="round" stroke-linecap="round" points="90.0,603.4 93.0,603.6 95.9,603.9 107.7,603.2 110.7,607.5 113.6,611.4 116.6,616.5 125.5,607.2 128.4,613.2 131.4,613.9 134.3,616.6 137.3,617.2 146.1,615.7 149.1,621.0 152.1,624.4 155.0,626.1 158.0,623.2 166.8,606.5 169.8,610.4 172.7,613.1 178.7,614.9 187.5,614.1 190.5,615.8 193.4,618.3 196.4,621.4 199.3,617.9 208.2,605.4 211.2,614.8 214.1,614.3 217.1,620.6 228.9,618.5 231.8,617.4 234.8,620.8 237.8,623.2 240.7,623.8 249.6,622.1 252.5,619.0 255.5,620.7 258.4,620.2 261.4,620.3 270.3,619.9 273.2,617.2 276.2,618.4 279.1,616.7 282.1,616.9 290.9,615.3 293.9,609.5 296.9,609.3 299.8,601.1 302.8,613.7 311.6,612.2 314.6,605.1 317.5,604.6 320.5,601.7 323.5,601.8 332.3,600.4 335.3,596.0 338.2,599.2 341.2,595.6 344.1,601.6 353.0,598.8 356.0,594.2 358.9,598.1 361.9,594.4 364.8,592.2 373.7,590.7 376.6,586.8 379.6,590.7 382.6,589.2 385.5,595.0 397.3,580.7 400.3,583.7 403.2,582.9 406.2,583.3 415.1,581.8 418.0,580.7 421.0,583.1 423.9,581.5 426.9,578.9 435.8,563.0 438.7,566.6 441.7,568.4 444.6,567.4 447.6,567.2 456.4,566.8 459.4,571.1 462.3,573.6 465.3,573.2 468.3,570.6 477.1,568.5 480.1,559.5 483.0,567.1 486.0,566.6 488.9,569.3 497.8,567.5 500.8,566.6 503.7,569.8 506.7,569.6 509.6,569.7 521.5,564.8 524.4,563.6 527.4,558.6 530.3,558.0 539.2,558.0 542.1,555.5 545.1,558.0 548.0,553.8 551.0,554.1 559.9,551.7 562.8,549.6 565.8,549.7 568.7,547.9 571.7,555.8 580.6,555.9 583.5,554.4 586.5,554.1 589.4,552.9 592.4,553.3 601.2,551.7 607.2,554.0 610.1,552.0 613.1,552.3 621.9,555.9 624.9,555.6 627.8,558.5 630.8,557.6 633.7,559.4 642.6,557.9 645.6,555.2 648.5,558.6 654.4,552.7 663.3,553.5 666.3,554.8 669.2,557.7 672.2,560.8 675.1,561.7 684.0,560.7 686.9,565.2 689.9,568.5 692.8,569.9 695.8,569.9 704.7,557.2 707.6,559.9 710.6,562.6 713.5,564.7 716.5,564.9 725.4,561.5 728.3,566.6 731.3,569.0 737.2,565.6 746.0,562.9 749.0,566.3 752.0,561.4 757.9,571.1 766.7,569.0 769.7,572.1 772.6,570.9 775.6,571.9 778.5,571.8 787.4,569.4 790.4,571.2 793.3,571.6 796.3,564.8 799.2,561.9 811.1,558.6 814.0,561.6 817.0,559.8 819.9,558.5 828.8,554.0 831.7,550.7 834.7,553.0 837.7,551.4 840.6,559.3 849.5,558.8 852.4,557.7 855.4,557.8 858.3,557.0 861.3,558.0 870.2,556.7 873.1,553.4 876.1,557.5 879.0,556.4 882.0,557.1 893.8,556.0 896.8,559.8 899.7,558.1 902.7,559.3 911.5,559.8 914.5,558.4 917.4,565.0 920.4,563.9 923.4,569.2 932.2,561.6 935.2,562.8 938.1,564.2 941.1,564.8 944.0,565.6 952.9,563.0 955.9,562.5 958.8,568.5 961.8,568.2 964.7,568.5 973.6,554.6 976.5,555.4 979.5,561.1 982.5,560.4 985.4,561.7 994.3,557.6 997.2,561.1 1000.2,565.2 1003.1,566.7 1006.1,564.0 1015.0,561.9 1017.9,559.3 1020.9,568.8 1023.8,571.7 1026.8,574.0 1035.6,571.7 1038.6,576.7 1041.6,580.0 1044.5,581.1 1047.5,579.4 1056.3,573.5 1059.3,571.3 1062.2,556.0 1065.2,551.1 1068.2,548.2 1077.0,544.0 1080.0,544.9 1082.9,547.3 1085.9,551.2 1088.8,550.7 1097.7,547.8 1100.7,549.0 1103.6,549.3 1106.6,551.2 1109.5,563.1 1118.4,560.7 1121.3,562.8 1124.3,562.5 1127.3,564.2 1130.2,565.0 1139.1,563.4 1142.0,564.5 1145.0,568.4 1147.9,568.9 1150.9,573.5 1159.8,570.6 1162.7,566.8 1165.7,571.0 1168.6,570.6 1171.6,566.4 1183.4,560.5 1186.4,564.6 1189.3,563.9 1192.3,558.2 1201.1,563.1 1204.1,562.2 1207.0,564.3 1210.0,564.3"/>
  <polyline fill="none" stroke="#b83242" stroke-width="3" stroke-linejoin="round" stroke-linecap="round" points="90.0,603.4 93.0,600.2 95.9,605.8 107.7,611.0 110.7,600.0 113.6,602.5 116.6,556.2 125.5,611.7 128.4,606.3 131.4,601.5 134.3,606.5 137.3,607.5 146.1,598.3 149.1,597.2 152.1,590.5 155.0,597.6 158.0,601.6 166.8,610.2 169.8,601.5 172.7,590.3 178.7,610.9 187.5,602.6 190.5,595.8 193.4,588.5 196.4,575.7 199.3,565.4 208.2,511.4 211.2,577.8 214.1,580.4 217.1,587.4 228.9,586.3 231.8,585.9 234.8,583.5 237.8,597.0 240.7,597.6 249.6,586.4 252.5,592.4 255.5,592.8 258.4,593.8 261.4,592.1 270.3,587.7 273.2,593.0 276.2,595.1 279.1,612.8 282.1,607.2 290.9,601.0 293.9,600.8 296.9,605.6 299.8,587.4 302.8,623.6 311.6,614.8 314.6,627.6 317.5,625.2 320.5,629.6 323.5,628.8 332.3,628.3 335.3,635.9 338.2,636.0 341.2,644.7 344.1,643.2 353.0,641.8 356.0,646.7 358.9,642.8 361.9,645.8 364.8,642.4 373.7,639.0 376.6,644.8 379.6,642.9 382.6,643.8 385.5,629.6 397.3,647.1 400.3,648.1 403.2,647.4 406.2,647.2 415.1,647.7 418.0,646.6 421.0,644.6 423.9,645.3 426.9,648.3 435.8,648.4 438.7,647.8 441.7,649.3 444.6,649.4 447.6,650.1 456.4,649.3 459.4,649.2 462.3,644.6 465.3,645.8 468.3,638.8 477.1,636.3 480.1,638.5 483.0,650.5 486.0,651.0 488.9,645.8 497.8,646.9 500.8,652.2 503.7,652.0 506.7,652.3 509.6,652.4 521.5,652.6 524.4,652.0 527.4,651.5 530.3,652.4 539.2,651.8 542.1,652.2 545.1,652.4 548.0,651.5 551.0,652.9 559.9,650.4 562.8,649.3 565.8,647.6 568.7,647.7 571.7,637.7 580.6,646.3 583.5,648.4 586.5,649.7 589.4,650.3 592.4,652.1 601.2,651.4 607.2,651.8 610.1,652.5 613.1,653.2 621.9,652.7 624.9,653.4 627.8,653.3 630.8,651.6 633.7,652.9 642.6,653.3 645.6,652.9 648.5,653.0 654.4,651.3 663.3,652.6 666.3,651.9 669.2,652.9 672.2,653.0 675.1,653.2 684.0,653.1 686.9,652.7 689.9,652.1 692.8,652.8 695.8,653.4 704.7,652.8 707.6,653.2 710.6,650.4 713.5,650.0 716.5,652.7 725.4,653.2 728.3,651.8 731.3,652.2 737.2,647.4 746.0,650.4 749.0,649.8 752.0,620.9 757.9,651.9 766.7,651.6 769.7,652.8 772.6,652.2 775.6,652.7 778.5,652.6 787.4,652.6 790.4,652.6 793.3,652.7 796.3,653.0 799.2,653.3 811.1,652.6 814.0,652.6 817.0,653.0 819.9,653.4 828.8,653.2 831.7,653.3 834.7,653.3 837.7,652.8 840.6,650.7 849.5,650.4 852.4,653.1 855.4,652.9 858.3,653.1 861.3,652.7 870.2,653.2 873.1,653.2 876.1,653.3 879.0,652.8 882.0,653.5 893.8,653.5 896.8,653.4 899.7,653.5 902.7,653.5 911.5,653.4 914.5,653.4 917.4,653.3 920.4,652.5 923.4,648.6 932.2,653.5 935.2,653.3 938.1,653.4 941.1,652.8 944.0,653.2 952.9,653.5 955.9,653.6 958.8,653.5 961.8,653.6 964.7,653.5 973.6,653.5 976.5,653.4 979.5,653.4 982.5,653.4 985.4,653.4 994.3,653.4 997.2,653.3 1000.2,653.4 1003.1,653.4 1006.1,653.3 1015.0,653.4 1017.9,648.8 1020.9,653.0 1023.8,653.5 1026.8,653.5 1035.6,653.6 1038.6,648.9 1041.6,653.6 1044.5,653.5 1047.5,653.5 1056.3,653.6 1059.3,653.6 1062.2,653.6 1065.2,653.6 1068.2,653.6 1077.0,653.5 1080.0,653.4 1082.9,653.5 1085.9,653.6 1088.8,653.6 1097.7,653.5 1100.7,653.4 1103.6,653.4 1106.6,651.1 1109.5,653.5 1118.4,653.5 1121.3,653.3 1124.3,653.1 1127.3,653.4 1130.2,653.4 1139.1,653.3 1142.0,653.3 1145.0,652.5 1147.9,653.0 1150.9,653.4 1159.8,651.4 1162.7,649.7 1165.7,646.0 1168.6,652.6 1171.6,653.3 1183.4,653.1 1186.4,653.1 1189.3,653.3 1192.3,650.0 1201.1,653.2 1204.1,652.9 1207.0,653.0 1210.0,653.3"/>
  <text x="30" y="506" font-family="Arial, Helvetica, sans-serif" font-size="14" fill="#6b7280">305.6</text>
  <text x="30" y="665" font-family="Arial, Helvetica, sans-serif" font-size="14" fill="#6b7280">-22.6</text>
  <circle cx="875" cy="466" r="6" fill="#2f6fbb"/><text x="890" y="471" font-family="Arial, Helvetica, sans-serif" font-size="15" fill="#1f2933">Fed assets</text>
  <circle cx="985" cy="466" r="6" fill="#b7791f"/><text x="1000" y="471" font-family="Arial, Helvetica, sans-serif" font-size="15" fill="#1f2933">TGA</text>
  <circle cx="1055" cy="466" r="6" fill="#b83242"/><text x="1070" y="471" font-family="Arial, Helvetica, sans-serif" font-size="15" fill="#1f2933">ON RRP</text>

  <text x="60" y="714" font-family="Arial, Helvetica, sans-serif" font-size="14" fill="#6b7280">Lower chart indexes each component to 100 on 2025-05-21. Latest component dates: Fed 2026-05-27, TGA 2026-06-03, RRP 2026-06-04.</text>
  <text x="60" y="736" font-family="Arial, Helvetica, sans-serif" font-size="14" fill="#6b7280">Source pages: Federal Reserve H.4.1, Treasury DTS, New York Fed reverse repo operations.</text>
</svg>
