<svg xmlns="http://www.w3.org/2000/svg" width="1280" height="760" viewBox="0 0 1280 760">
  <rect width="100%" height="100%" fill="#f7f3ea"/>
  <text x="60" y="58" font-family="Arial, Helvetica, sans-serif" font-size="30" font-weight="700" fill="#1f2933">Fed / TGA / ON RRP Liquidity</text>
  <text x="60" y="91" font-family="Arial, Helvetica, sans-serif" font-size="18" fill="#6b7280">Net liquidity in USD trillions; components indexed to compare trends.</text>
  <text x="60" y="121" font-family="Arial, Helvetica, sans-serif" font-size="18" fill="#167c6b" font-weight="700">Latest: 5.707T</text>
  <text x="210" y="121" font-family="Arial, Helvetica, sans-serif" font-size="15" fill="#6b7280">date range: 2025-08-20 to 2026-09-01 | updated: 2026-09-02T00:46:46.225156Z</text>

  <line x1="90" y1="145.0" x2="1210" y2="145.0" stroke="#d8d2c4" stroke-width="1"/><line x1="90" y1="213.8" x2="1210" y2="213.8" stroke="#d8d2c4" stroke-width="1"/><line x1="90" y1="282.5" x2="1210" y2="282.5" stroke="#d8d2c4" stroke-width="1"/><line x1="90" y1="351.2" x2="1210" y2="351.2" stroke="#d8d2c4" stroke-width="1"/><line x1="90" y1="420.0" x2="1210" y2="420.0" stroke="#d8d2c4" stroke-width="1"/><line x1="90" y1="500.0" x2="1210" y2="500.0" stroke="#d8d2c4" stroke-width="1"/><line x1="90" y1="582.5" x2="1210" y2="582.5" stroke="#d8d2c4" stroke-width="1"/><line x1="90" y1="665.0" x2="1210" y2="665.0" stroke="#d8d2c4" stroke-width="1"/>
  <line x1="90.0" y1="145" x2="90.0" y2="420" stroke="#d8d2c4" stroke-width="1"/><line x1="90.0" y1="500" x2="90.0" y2="665" stroke="#d8d2c4" stroke-width="1"/><line x1="90.0" y1="420" x2="90.0" y2="427" stroke="#9b9383" stroke-width="1"/><text x="90.0" y="445" font-family="Arial, Helvetica, sans-serif" font-size="12" fill="#6b7280" text-anchor="middle">2025-08-20</text><line x1="125.6" y1="145" x2="125.6" y2="420" stroke="#d8d2c4" stroke-width="1"/><line x1="125.6" y1="500" x2="125.6" y2="665" stroke="#d8d2c4" stroke-width="1"/><line x1="125.6" y1="420" x2="125.6" y2="427" stroke="#9b9383" stroke-width="1"/><text x="125.6" y="445" font-family="Arial, Helvetica, sans-serif" font-size="12" fill="#6b7280" text-anchor="middle">2025-09</text><line x1="214.8" y1="145" x2="214.8" y2="420" stroke="#d8d2c4" stroke-width="1"/><line x1="214.8" y1="500" x2="214.8" y2="665" stroke="#d8d2c4" stroke-width="1"/><line x1="214.8" y1="420" x2="214.8" y2="427" stroke="#9b9383" stroke-width="1"/><text x="214.8" y="445" font-family="Arial, Helvetica, sans-serif" font-size="12" fill="#6b7280" text-anchor="middle">2025-10</text><line x1="306.9" y1="145" x2="306.9" y2="420" stroke="#d8d2c4" stroke-width="1"/><line x1="306.9" y1="500" x2="306.9" y2="665" stroke="#d8d2c4" stroke-width="1"/><line x1="306.9" y1="420" x2="306.9" y2="427" stroke="#9b9383" stroke-width="1"/><text x="306.9" y="445" font-family="Arial, Helvetica, sans-serif" font-size="12" fill="#6b7280" text-anchor="middle">2025-11</text><line x1="396.0" y1="145" x2="396.0" y2="420" stroke="#d8d2c4" stroke-width="1"/><line x1="396.0" y1="500" x2="396.0" y2="665" stroke="#d8d2c4" stroke-width="1"/><line x1="396.0" y1="420" x2="396.0" y2="427" stroke="#9b9383" stroke-width="1"/><text x="396.0" y="445" font-family="Arial, Helvetica, sans-serif" font-size="12" fill="#6b7280" text-anchor="middle">2025-12</text><line x1="488.1" y1="145" x2="488.1" y2="420" stroke="#d8d2c4" stroke-width="1"/><line x1="488.1" y1="500" x2="488.1" y2="665" stroke="#d8d2c4" stroke-width="1"/><line x1="488.1" y1="420" x2="488.1" y2="427" stroke="#9b9383" stroke-width="1"/><text x="488.1" y="445" font-family="Arial, Helvetica, sans-serif" font-size="12" fill="#6b7280" text-anchor="middle">2026-01</text><line x1="580.2" y1="145" x2="580.2" y2="420" stroke="#d8d2c4" stroke-width="1"/><line x1="580.2" y1="500" x2="580.2" y2="665" stroke="#d8d2c4" stroke-width="1"/><line x1="580.2" y1="420" x2="580.2" y2="427" stroke="#9b9383" stroke-width="1"/><text x="580.2" y="445" font-family="Arial, Helvetica, sans-serif" font-size="12" fill="#6b7280" text-anchor="middle">2026-02</text><line x1="663.4" y1="145" x2="663.4" y2="420" stroke="#d8d2c4" stroke-width="1"/><line x1="663.4" y1="500" x2="663.4" y2="665" stroke="#d8d2c4" stroke-width="1"/><line x1="663.4" y1="420" x2="663.4" y2="427" stroke="#9b9383" stroke-width="1"/><text x="663.4" y="445" font-family="Arial, Helvetica, sans-serif" font-size="12" fill="#6b7280" text-anchor="middle">2026-03</text><line x1="755.5" y1="145" x2="755.5" y2="420" stroke="#d8d2c4" stroke-width="1"/><line x1="755.5" y1="500" x2="755.5" y2="665" stroke="#d8d2c4" stroke-width="1"/><line x1="755.5" y1="420" x2="755.5" y2="427" stroke="#9b9383" stroke-width="1"/><text x="755.5" y="445" font-family="Arial, Helvetica, sans-serif" font-size="12" fill="#6b7280" text-anchor="middle">2026-04</text><line x1="844.6" y1="145" x2="844.6" y2="420" stroke="#d8d2c4" stroke-width="1"/><line x1="844.6" y1="500" x2="844.6" y2="665" stroke="#d8d2c4" stroke-width="1"/><line x1="844.6" y1="420" x2="844.6" y2="427" stroke="#9b9383" stroke-width="1"/><text x="844.6" y="445" font-family="Arial, Helvetica, sans-serif" font-size="12" fill="#6b7280" text-anchor="middle">2026-05</text><line x1="936.7" y1="145" x2="936.7" y2="420" stroke="#d8d2c4" stroke-width="1"/><line x1="936.7" y1="500" x2="936.7" y2="665" stroke="#d8d2c4" stroke-width="1"/><line x1="936.7" y1="420" x2="936.7" y2="427" stroke="#9b9383" stroke-width="1"/><text x="936.7" y="445" font-family="Arial, Helvetica, sans-serif" font-size="12" fill="#6b7280" text-anchor="middle">2026-06</text><line x1="1025.8" y1="145" x2="1025.8" y2="420" stroke="#d8d2c4" stroke-width="1"/><line x1="1025.8" y1="500" x2="1025.8" y2="665" stroke="#d8d2c4" stroke-width="1"/><line x1="1025.8" y1="420" x2="1025.8" y2="427" stroke="#9b9383" stroke-width="1"/><text x="1025.8" y="445" font-family="Arial, Helvetica, sans-serif" font-size="12" fill="#6b7280" text-anchor="middle">2026-07</text><line x1="1117.9" y1="145" x2="1117.9" y2="420" stroke="#d8d2c4" stroke-width="1"/><line x1="1117.9" y1="500" x2="1117.9" y2="665" stroke="#d8d2c4" stroke-width="1"/><line x1="1117.9" y1="420" x2="1117.9" y2="427" stroke="#9b9383" stroke-width="1"/><text x="1117.9" y="445" font-family="Arial, Helvetica, sans-serif" font-size="12" fill="#6b7280" text-anchor="middle">2026-08</text><line x1="1210.0" y1="145" x2="1210.0" y2="420" stroke="#d8d2c4" stroke-width="1"/><line x1="1210.0" y1="500" x2="1210.0" y2="665" stroke="#d8d2c4" stroke-width="1"/><line x1="1210.0" y1="420" x2="1210.0" y2="427" stroke="#9b9383" stroke-width="1"/><text x="1210.0" y="445" font-family="Arial, Helvetica, sans-serif" font-size="12" fill="#6b7280" text-anchor="middle">2026-09-01</text>
  <rect x="90" y="145" width="1120" height="275" fill="none" stroke="#b8b0a0" stroke-width="1"/>
  <text x="30" y="151" font-family="Arial, Helvetica, sans-serif" font-size="14" fill="#6b7280">6.13T</text>
  <text x="30" y="420" font-family="Arial, Helvetica, sans-serif" font-size="14" fill="#6b7280">5.55T</text>
  <text x="90" y="127" font-family="Arial, Helvetica, sans-serif" font-size="16" font-weight="700" fill="#1f2933">Net liquidity</text>
  <polyline fill="none" stroke="#167c6b" stroke-width="4" stroke-linejoin="round" stroke-linecap="round" points="90.0,164.0 93.0,180.4 95.9,189.9 104.9,196.5 107.8,214.0 110.8,203.7 113.8,210.2 116.7,184.7 128.6,247.9 131.6,235.3 134.6,238.7 137.5,237.3 146.4,243.9 149.4,248.6 152.4,236.1 155.4,243.2 158.3,254.9 167.2,325.2 170.2,309.3 173.2,300.3 176.2,304.6 179.1,305.6 188.0,307.4 191.0,288.3 194.0,277.3 196.9,278.8 199.9,290.6 208.8,299.7 211.8,339.6 214.8,316.1 217.7,318.2 220.7,306.2 229.6,314.1 232.6,318.1 235.6,302.5 238.5,303.4 241.5,302.6 253.4,324.6 256.4,326.9 259.3,349.3 262.3,352.0 271.2,352.2 274.2,363.2 277.2,355.1 280.1,373.8 283.1,372.6 292.0,383.1 295.0,392.5 298.0,393.2 300.9,401.0 303.9,366.2 312.8,365.6 315.8,372.4 318.8,380.6 321.7,385.7 324.7,383.9 333.6,391.2 339.5,377.2 342.5,386.0 345.5,384.7 354.4,368.6 357.4,370.3 360.3,369.1 363.3,373.2 366.3,365.0 375.2,371.8 378.2,383.6 381.1,369.9 387.1,396.3 396.0,392.6 399.0,386.9 401.9,381.9 404.9,367.9 407.9,363.9 416.8,368.6 419.8,348.5 422.7,332.1 425.7,325.9 428.7,325.8 437.6,382.3 440.6,370.2 443.5,349.9 446.5,341.0 449.5,339.8 458.4,354.9 461.4,332.6 464.3,310.5 470.3,325.6 479.2,337.4 482.1,322.1 485.1,316.1 491.1,273.1 500.0,282.4 502.9,268.8 505.9,305.6 508.9,301.0 511.9,301.6 520.8,312.1 523.7,304.3 526.7,298.8 529.7,328.7 532.7,341.5 544.5,356.3 547.5,341.5 550.5,349.6 553.4,355.3 562.4,375.5 565.3,390.1 568.3,378.3 571.3,385.5 574.2,350.5 583.2,352.7 586.1,357.3 589.1,348.7 592.1,351.9 595.0,347.5 604.0,353.3 606.9,367.8 609.9,342.2 612.9,347.1 615.8,343.7 627.7,348.9 630.7,336.3 633.7,343.8 636.6,338.4 645.5,336.0 648.5,342.1 651.5,312.7 654.5,317.6 657.4,294.0 666.3,327.9 669.3,322.5 672.3,309.4 675.3,306.5 678.2,302.9 687.1,314.8 690.1,316.8 693.1,281.9 696.0,283.6 699.0,282.2 707.9,343.7 710.9,340.0 713.9,310.3 716.8,313.5 719.8,307.9 728.7,326.0 731.7,310.4 734.7,291.7 737.6,284.9 740.6,297.0 749.5,306.2 752.5,317.7 755.5,267.3 758.4,254.4 761.4,244.1 770.3,254.1 773.3,232.0 776.3,208.7 779.2,204.0 782.2,211.6 791.1,237.7 794.1,247.3 797.1,309.7 800.0,331.6 803.0,344.5 811.9,362.9 814.9,359.0 817.9,347.7 820.8,330.2 823.8,332.3 832.7,345.4 835.7,339.8 838.6,342.2 841.6,333.5 844.6,281.0 853.5,291.6 856.5,282.4 859.4,279.0 862.4,271.4 865.4,268.0 874.3,275.2 877.3,270.3 880.2,244.2 883.2,241.9 886.2,221.4 895.1,234.1 898.1,251.2 901.0,239.3 904.0,241.1 907.0,259.7 918.9,285.8 921.8,272.0 924.8,275.3 927.8,300.7 936.7,278.7 939.7,283.0 942.6,270.1 945.6,269.6 948.6,260.7 957.5,269.4 960.5,262.9 963.4,242.7 966.4,242.0 969.4,249.7 978.3,326.4 981.2,327.1 984.2,310.3 987.2,290.9 999.1,303.9 1002.0,296.0 1005.0,285.1 1008.0,270.9 1011.0,282.2 1019.9,273.4 1022.8,293.2 1025.8,246.0 1028.8,228.8 1031.8,231.7 1040.7,234.7 1043.6,235.5 1046.6,213.6 1049.6,211.5 1052.5,208.5 1061.5,214.1 1064.4,231.7 1067.4,232.0 1070.4,244.5 1073.3,241.1 1082.3,247.1 1085.2,269.1 1088.2,248.5 1091.2,268.1 1094.1,272.3 1103.1,280.0 1106.0,309.7 1109.0,316.1 1112.0,328.9 1114.9,272.1 1123.8,269.0 1126.8,294.4 1129.8,291.9 1132.8,307.1 1135.7,303.5 1144.6,309.5 1147.6,323.8 1150.6,300.7 1153.6,304.0 1156.5,300.6 1165.4,288.2 1168.4,301.9 1171.4,296.6 1174.4,296.0 1177.3,295.1 1186.2,310.8 1189.2,323.6 1192.2,314.3 1195.1,310.3 1198.1,319.9 1207.0,344.4 1210.0,344.3"/>

  <rect x="90" y="500" width="1120" height="165" fill="none" stroke="#b8b0a0" stroke-width="1"/>
  <text x="90" y="480" font-family="Arial, Helvetica, sans-serif" font-size="16" font-weight="700" fill="#1f2933">Components trend (start = 100)</text>
  <polyline fill="none" stroke="#2f6fbb" stroke-width="3" stroke-linejoin="round" stroke-linecap="round" points="90.0,606.7 93.0,606.7 95.9,606.7 104.9,606.7 107.8,606.7 110.8,606.8 113.8,606.8 116.7,606.8 128.6,606.8 131.6,606.8 134.6,606.8 137.5,606.8 146.4,606.8 149.4,606.8 152.4,606.8 155.4,606.8 158.3,606.8 167.2,606.8 170.2,606.8 173.2,606.7 176.2,606.7 179.1,606.7 188.0,606.7 191.0,606.7 194.0,606.8 196.9,606.8 199.9,606.8 208.8,606.8 211.8,606.8 214.8,606.9 217.7,606.9 220.7,606.9 229.6,606.9 232.6,606.9 235.6,606.9 238.5,606.9 241.5,606.9 253.4,606.9 256.4,606.8 259.3,606.8 262.3,606.8 271.2,606.8 274.2,606.8 277.2,606.9 280.1,606.9 283.1,606.9 292.0,606.9 295.0,606.9 298.0,606.9 300.9,606.9 303.9,606.9 312.8,606.9 315.8,606.9 318.8,607.0 321.7,607.0 324.7,607.0 333.6,607.0 339.5,606.9 342.5,606.9 345.5,606.9 354.4,606.9 357.4,606.9 360.3,607.1 363.3,607.1 366.3,607.1 375.2,607.1 378.2,607.1 381.1,607.1 387.1,607.1 396.0,607.1 399.0,607.1 401.9,607.3 404.9,607.3 407.9,607.3 416.8,607.3 419.8,607.3 422.7,607.2 425.7,607.2 428.7,607.2 437.6,607.2 440.6,607.2 443.5,607.1 446.5,607.1 449.5,607.1 458.4,607.1 461.4,607.1 464.3,606.9 470.3,606.9 479.2,606.9 482.1,606.9 485.1,606.5 491.1,606.5 500.0,606.5 502.9,606.5 505.9,607.0 508.9,607.0 511.9,607.0 520.8,607.0 523.7,607.0 526.7,606.9 529.7,606.9 532.7,606.9 544.5,606.9 547.5,606.9 550.5,606.9 553.4,606.9 562.4,606.9 565.3,606.9 568.3,606.9 571.3,606.9 574.2,606.9 583.2,606.9 586.1,606.9 589.1,606.8 592.1,606.8 595.0,606.8 604.0,606.8 606.9,606.8 609.9,606.7 612.9,606.7 615.8,606.7 627.7,606.7 630.7,606.7 633.7,606.7 636.6,606.7 645.5,606.7 648.5,606.7 651.5,606.7 654.5,606.7 657.4,606.7 666.3,606.7 669.3,606.7 672.3,606.6 675.3,606.6 678.2,606.6 687.1,606.6 690.1,606.6 693.1,606.5 696.0,606.5 699.0,606.5 707.9,606.5 710.9,606.5 713.9,606.4 716.8,606.4 719.8,606.4 728.7,606.4 731.7,606.4 734.7,606.4 737.6,606.4 740.6,606.4 749.5,606.4 752.5,606.4 755.5,606.3 758.4,606.3 761.4,606.3 770.3,606.3 773.3,606.3 776.3,606.1 779.2,606.1 782.2,606.1 791.1,606.1 794.1,606.1 797.1,606.1 800.0,606.1 803.0,606.1 811.9,606.1 814.9,606.1 817.9,606.0 820.8,606.0 823.8,606.0 832.7,606.0 835.7,606.0 838.6,606.1 841.6,606.1 844.6,606.1 853.5,606.1 856.5,606.1 859.4,606.0 862.4,606.0 865.4,606.0 874.3,606.0 877.3,606.0 880.2,605.9 883.2,605.9 886.2,605.9 895.1,605.9 898.1,605.9 901.0,606.0 904.0,606.0 907.0,606.0 918.9,606.0 921.8,606.1 924.8,606.1 927.8,606.1 936.7,606.1 939.7,606.1 942.6,606.0 945.6,606.0 948.6,606.0 957.5,606.0 960.5,606.0 963.4,605.9 966.4,605.9 969.4,605.9 978.3,605.9 981.2,605.9 984.2,605.8 987.2,605.8 999.1,605.8 1002.0,605.8 1005.0,605.8 1008.0,605.8 1011.0,605.8 1019.9,605.8 1022.8,605.8 1025.8,605.9 1028.8,605.9 1031.8,605.9 1040.7,605.9 1043.6,605.9 1046.6,605.8 1049.6,605.8 1052.5,605.8 1061.5,605.8 1064.4,605.8 1067.4,605.8 1070.4,605.8 1073.3,605.8 1082.3,605.8 1085.2,605.8 1088.2,605.8 1091.2,605.8 1094.1,605.8 1103.1,605.8 1106.0,605.8 1109.0,605.8 1112.0,605.8 1114.9,605.8 1123.8,605.8 1126.8,605.8 1129.8,605.8 1132.8,605.8 1135.7,605.8 1144.6,605.8 1147.6,605.8 1150.6,605.7 1153.6,605.7 1156.5,605.7 1165.4,605.7 1168.4,605.7 1171.4,605.8 1174.4,605.8 1177.3,605.8 1186.2,605.8 1189.2,605.8 1192.2,605.9 1195.1,605.9 1198.1,605.9 1207.0,605.9 1210.0,605.9"/>
  <polyline fill="none" stroke="#b7791f" stroke-width="3" stroke-linejoin="round" stroke-linecap="round" points="90.0,606.7 93.0,603.5 95.9,601.7 104.9,600.5 107.8,597.1 110.8,600.5 113.8,599.2 116.7,604.1 128.6,592.0 131.6,594.5 134.6,593.9 137.5,594.2 146.4,592.9 149.4,592.0 152.4,594.0 155.4,592.7 158.3,590.5 167.2,577.1 170.2,580.1 173.2,581.6 176.2,580.7 179.1,580.6 188.0,580.2 191.0,583.9 194.0,586.0 196.9,585.7 199.9,583.4 208.8,581.7 211.8,574.1 214.8,580.5 217.7,580.1 220.7,582.4 229.6,580.9 232.6,580.1 235.6,582.7 238.5,582.6 241.5,582.7 253.4,578.5 256.4,577.6 259.3,573.3 262.3,572.8 271.2,572.8 274.2,570.7 277.2,572.8 280.1,569.3 283.1,569.5 292.0,567.5 295.0,565.7 298.0,565.8 300.9,564.3 303.9,570.9 312.8,571.1 315.8,569.7 318.8,569.5 321.7,568.5 324.7,568.8 333.6,567.5 339.5,569.4 342.5,567.8 345.5,568.0 354.4,571.1 357.4,570.7 360.3,573.2 363.3,572.4 366.3,574.0 375.2,572.7 378.2,570.4 381.1,573.3 387.1,568.3 396.0,569.0 399.0,570.1 401.9,572.5 404.9,575.2 407.9,575.9 416.8,575.1 419.8,578.9 422.7,581.7 425.7,582.9 428.7,582.9 437.6,572.1 440.6,574.4 443.5,576.7 446.5,578.4 449.5,578.7 458.4,575.8 461.4,580.0 464.3,582.1 470.3,579.2 479.2,576.9 482.1,579.9 485.1,575.7 491.1,583.9 500.0,582.1 502.9,584.7 505.9,583.7 508.9,584.6 511.9,584.4 520.8,582.5 523.7,583.9 526.7,584.3 529.7,578.6 532.7,576.1 544.5,573.3 547.5,575.9 550.5,574.3 553.4,573.2 562.4,569.4 565.3,566.6 568.3,568.6 571.3,567.2 574.2,573.9 583.2,573.5 586.1,572.6 589.1,572.6 592.1,572.0 595.0,572.8 604.0,571.7 606.9,568.9 609.9,572.3 612.9,571.4 615.8,572.1 627.7,571.1 630.7,574.3 633.7,572.9 636.6,573.9 645.5,574.3 648.5,573.2 651.5,578.7 654.5,577.8 657.4,582.3 666.3,575.8 669.3,576.9 672.3,578.0 675.3,578.6 678.2,579.3 687.1,577.0 690.1,576.6 693.1,581.7 696.0,581.4 699.0,581.6 707.9,569.9 710.9,570.6 713.9,575.4 716.8,574.8 719.8,575.9 728.7,572.4 731.7,575.4 734.7,578.9 737.6,580.2 740.6,577.9 749.5,576.1 752.5,573.9 755.5,581.9 758.4,584.4 761.4,586.3 770.3,584.4 773.3,588.6 776.3,591.4 779.2,592.3 782.2,590.9 791.1,585.9 794.1,584.0 797.1,571.1 800.0,566.9 803.0,564.5 811.9,561.0 814.9,561.7 817.9,563.7 820.8,567.0 823.8,566.7 832.7,564.1 835.7,565.2 838.6,565.4 841.6,567.1 844.6,577.1 853.5,575.1 856.5,576.8 859.4,576.6 862.4,578.1 865.4,578.7 874.3,577.3 877.3,578.3 880.2,581.6 883.2,582.0 886.2,585.9 895.1,583.5 898.1,580.2 901.0,583.8 904.0,583.5 907.0,579.9 918.9,575.0 921.8,578.4 924.8,577.8 927.8,572.9 936.7,577.1 939.7,576.3 942.6,578.1 945.6,578.2 948.6,579.9 957.5,578.3 960.5,579.5 963.4,582.1 966.4,582.3 969.4,580.8 978.3,566.2 981.2,566.0 984.2,568.2 987.2,571.9 999.1,569.5 1002.0,571.0 1005.0,573.1 1008.0,575.8 1011.0,573.7 1019.9,575.3 1022.8,571.6 1025.8,581.6 1028.8,584.8 1031.8,584.3 1040.7,583.7 1043.6,583.6 1046.6,586.7 1049.6,587.2 1052.5,587.7 1061.5,586.7 1064.4,583.3 1067.4,582.6 1070.4,580.2 1073.3,580.8 1082.3,579.7 1085.2,575.5 1088.2,579.1 1091.2,575.3 1094.1,574.5 1103.1,573.0 1106.0,567.4 1109.0,567.0 1112.0,564.5 1114.9,575.4 1123.8,576.0 1126.8,571.1 1129.8,570.7 1132.8,567.8 1135.7,568.5 1144.6,567.3 1147.6,564.6 1150.6,568.0 1153.6,567.3 1156.5,568.0 1165.4,570.4 1168.4,567.8 1171.4,570.0 1174.4,570.2 1177.3,570.3 1186.2,567.3 1189.2,564.9 1192.2,568.0 1195.1,568.7 1198.1,566.9 1207.0,562.2 1210.0,562.2"/>
  <polyline fill="none" stroke="#b83242" stroke-width="3" stroke-linejoin="round" stroke-linecap="round" points="90.0,606.7 93.0,619.6 95.9,605.0 104.9,589.8 107.8,615.3 110.8,607.0 113.8,610.8 116.7,549.1 128.6,625.4 131.6,629.6 134.6,626.6 137.5,625.5 146.4,627.6 149.4,622.9 152.4,614.2 155.4,617.6 158.3,630.4 167.2,630.9 170.2,628.4 173.2,634.9 176.2,635.3 179.1,638.4 188.0,634.6 191.0,634.3 194.0,614.5 196.9,619.6 199.9,589.1 208.8,578.2 211.8,587.8 214.8,640.0 217.7,642.3 220.7,619.6 229.6,624.4 232.6,647.5 235.6,646.6 238.5,647.6 241.5,648.1 253.4,648.9 256.4,646.3 259.3,644.3 262.3,648.2 271.2,645.7 274.2,647.4 277.2,648.3 280.1,644.3 283.1,650.4 292.0,639.4 295.0,634.7 298.0,627.5 300.9,627.9 303.9,584.1 312.8,621.7 315.8,630.9 318.8,636.5 321.7,639.2 324.7,647.1 333.6,644.1 339.5,645.8 342.5,648.6 345.5,651.6 354.4,649.4 357.4,652.4 360.3,652.1 363.3,644.9 366.3,650.3 375.2,652.2 378.2,650.6 381.1,650.7 387.1,643.5 396.0,649.3 399.0,646.1 401.9,650.3 404.9,650.7 407.9,651.7 416.8,651.4 419.8,649.4 422.7,646.9 425.7,649.8 428.7,652.5 437.6,650.2 440.6,651.6 443.5,639.8 446.5,637.9 449.5,649.6 458.4,651.6 461.4,645.8 464.3,647.2 470.3,626.4 479.2,639.5 482.1,636.7 485.1,511.4 491.1,646.1 500.0,645.0 502.9,650.2 505.9,647.5 508.9,649.5 511.9,649.3 520.8,649.1 523.7,649.3 526.7,649.3 529.7,651.0 532.7,652.0 544.5,649.0 547.5,649.2 550.5,650.9 553.4,652.4 562.4,651.7 565.3,652.0 568.3,652.2 571.3,649.8 574.2,640.7 583.2,639.7 586.1,651.3 589.1,650.4 592.1,651.3 595.0,649.5 604.0,651.9 606.9,651.7 609.9,652.3 612.9,649.8 615.8,653.2 627.7,653.1 630.7,652.5 633.7,652.8 636.6,653.0 645.5,652.5 648.5,652.4 651.5,652.1 654.5,648.6 657.4,631.8 666.3,652.8 669.3,652.0 672.3,652.5 675.3,649.9 678.2,651.6 687.1,653.2 690.1,653.3 693.1,652.9 696.0,653.5 699.0,653.1 707.9,652.9 710.9,652.6 713.9,652.7 716.8,652.8 719.8,652.6 728.7,652.5 731.7,652.2 734.7,652.6 737.6,652.5 740.6,652.3 749.5,652.7 752.5,632.5 755.5,650.8 758.4,653.2 761.4,653.2 770.3,653.4 773.3,633.1 776.3,653.4 779.2,653.1 782.2,653.0 791.1,653.4 794.1,653.3 797.1,653.4 800.0,653.4 803.0,653.5 811.9,653.0 814.9,652.6 817.9,652.9 820.8,653.5 823.8,653.6 832.7,653.2 835.7,652.8 838.6,652.7 841.6,642.6 844.6,652.8 853.5,652.8 856.5,652.2 859.4,651.5 862.4,652.6 865.4,652.6 874.3,652.1 877.3,652.1 880.2,648.7 883.2,650.9 886.2,652.8 895.1,644.0 898.1,636.3 901.0,620.3 904.0,649.3 907.0,652.4 918.9,651.3 921.8,651.2 924.8,652.1 927.8,638.0 936.7,651.9 939.7,650.3 942.6,650.9 945.6,652.2 948.6,652.6 957.5,651.2 960.5,652.9 963.4,653.1 966.4,653.0 969.4,653.1 978.3,652.9 981.2,639.3 984.2,644.5 987.2,653.3 999.1,648.4 1002.0,645.0 1005.0,647.6 1008.0,646.0 1011.0,645.0 1019.9,648.9 1022.8,617.6 1025.8,652.3 1028.8,650.7 1031.8,650.7 1040.7,650.0 1043.6,647.6 1046.6,649.2 1049.6,645.9 1052.5,652.9 1061.5,652.6 1064.4,653.3 1067.4,653.5 1070.4,653.5 1073.3,653.5 1082.3,653.6 1085.2,653.3 1088.2,653.2 1091.2,652.4 1094.1,652.8 1103.1,651.8 1106.0,652.1 1109.0,650.2 1112.0,652.2 1114.9,650.8 1123.8,650.8 1126.8,650.6 1129.8,651.4 1132.8,651.7 1135.7,651.7 1144.6,652.4 1147.6,652.0 1150.6,652.7 1153.6,653.1 1156.5,653.3 1165.4,653.3 1168.4,653.5 1171.4,653.2 1174.4,653.4 1177.3,653.4 1186.2,653.2 1189.2,653.1 1192.2,652.7 1195.1,653.0 1198.1,653.4 1207.0,644.6 1210.0,652.7"/>
  <text x="30" y="506" font-family="Arial, Helvetica, sans-serif" font-size="14" fill="#6b7280">327.1</text>
  <text x="30" y="665" font-family="Arial, Helvetica, sans-serif" font-size="14" fill="#6b7280">-24.1</text>
  <circle cx="875" cy="466" r="6" fill="#2f6fbb"/><text x="890" y="471" font-family="Arial, Helvetica, sans-serif" font-size="15" fill="#1f2933">Fed assets</text>
  <circle cx="985" cy="466" r="6" fill="#b7791f"/><text x="1000" y="471" font-family="Arial, Helvetica, sans-serif" font-size="15" fill="#1f2933">TGA</text>
  <circle cx="1055" cy="466" r="6" fill="#b83242"/><text x="1070" y="471" font-family="Arial, Helvetica, sans-serif" font-size="15" fill="#1f2933">ON RRP</text>

  <text x="60" y="714" font-family="Arial, Helvetica, sans-serif" font-size="14" fill="#6b7280">Lower chart indexes each component to 100 on 2025-08-20. Latest component dates: Fed 2026-08-26, TGA 2026-08-31, RRP 2026-09-01.</text>
  <text x="60" y="736" font-family="Arial, Helvetica, sans-serif" font-size="14" fill="#6b7280">Source pages: Federal Reserve H.4.1, Treasury DTS, New York Fed reverse repo operations.</text>
</svg>
