<svg xmlns="http://www.w3.org/2000/svg" width="1280" height="760" viewBox="0 0 1280 760">
  <rect width="100%" height="100%" fill="#f7f3ea"/>
  <text x="60" y="58" font-family="Arial, Helvetica, sans-serif" font-size="30" font-weight="700" fill="#1f2933">Fed / TGA / ON RRP Liquidity</text>
  <text x="60" y="91" font-family="Arial, Helvetica, sans-serif" font-size="18" fill="#6b7280">Net liquidity in USD trillions; components indexed to compare trends.</text>
  <text x="60" y="121" font-family="Arial, Helvetica, sans-serif" font-size="18" fill="#167c6b" font-weight="700">Latest: 5.909T</text>
  <text x="210" y="121" font-family="Arial, Helvetica, sans-serif" font-size="15" fill="#6b7280">date range: 2025-06-02 to 2026-06-15 | updated: 2026-06-16T00:28:21.404514Z</text>

  <line x1="90" y1="145.0" x2="1210" y2="145.0" stroke="#d8d2c4" stroke-width="1"/><line x1="90" y1="213.8" x2="1210" y2="213.8" stroke="#d8d2c4" stroke-width="1"/><line x1="90" y1="282.5" x2="1210" y2="282.5" stroke="#d8d2c4" stroke-width="1"/><line x1="90" y1="351.2" x2="1210" y2="351.2" stroke="#d8d2c4" stroke-width="1"/><line x1="90" y1="420.0" x2="1210" y2="420.0" stroke="#d8d2c4" stroke-width="1"/><line x1="90" y1="500.0" x2="1210" y2="500.0" stroke="#d8d2c4" stroke-width="1"/><line x1="90" y1="582.5" x2="1210" y2="582.5" stroke="#d8d2c4" stroke-width="1"/><line x1="90" y1="665.0" x2="1210" y2="665.0" stroke="#d8d2c4" stroke-width="1"/>
  <line x1="90.0" y1="145" x2="90.0" y2="420" stroke="#d8d2c4" stroke-width="1"/><line x1="90.0" y1="500" x2="90.0" y2="665" stroke="#d8d2c4" stroke-width="1"/><line x1="90.0" y1="420" x2="90.0" y2="427" stroke="#9b9383" stroke-width="1"/><text x="90.0" y="445" font-family="Arial, Helvetica, sans-serif" font-size="12" fill="#6b7280" text-anchor="middle">2025-06-02</text><line x1="175.9" y1="145" x2="175.9" y2="420" stroke="#d8d2c4" stroke-width="1"/><line x1="175.9" y1="500" x2="175.9" y2="665" stroke="#d8d2c4" stroke-width="1"/><line x1="175.9" y1="420" x2="175.9" y2="427" stroke="#9b9383" stroke-width="1"/><text x="175.9" y="445" font-family="Arial, Helvetica, sans-serif" font-size="12" fill="#6b7280" text-anchor="middle">2025-07</text><line x1="267.8" y1="145" x2="267.8" y2="420" stroke="#d8d2c4" stroke-width="1"/><line x1="267.8" y1="500" x2="267.8" y2="665" stroke="#d8d2c4" stroke-width="1"/><line x1="267.8" y1="420" x2="267.8" y2="427" stroke="#9b9383" stroke-width="1"/><text x="267.8" y="445" font-family="Arial, Helvetica, sans-serif" font-size="12" fill="#6b7280" text-anchor="middle">2025-08</text><line x1="359.6" y1="145" x2="359.6" y2="420" stroke="#d8d2c4" stroke-width="1"/><line x1="359.6" y1="500" x2="359.6" y2="665" stroke="#d8d2c4" stroke-width="1"/><line x1="359.6" y1="420" x2="359.6" y2="427" stroke="#9b9383" stroke-width="1"/><text x="359.6" y="445" font-family="Arial, Helvetica, sans-serif" font-size="12" fill="#6b7280" text-anchor="middle">2025-09</text><line x1="448.5" y1="145" x2="448.5" y2="420" stroke="#d8d2c4" stroke-width="1"/><line x1="448.5" y1="500" x2="448.5" y2="665" stroke="#d8d2c4" stroke-width="1"/><line x1="448.5" y1="420" x2="448.5" y2="427" stroke="#9b9383" stroke-width="1"/><text x="448.5" y="445" font-family="Arial, Helvetica, sans-serif" font-size="12" fill="#6b7280" text-anchor="middle">2025-10</text><line x1="540.4" y1="145" x2="540.4" y2="420" stroke="#d8d2c4" stroke-width="1"/><line x1="540.4" y1="500" x2="540.4" y2="665" stroke="#d8d2c4" stroke-width="1"/><line x1="540.4" y1="420" x2="540.4" y2="427" stroke="#9b9383" stroke-width="1"/><text x="540.4" y="445" font-family="Arial, Helvetica, sans-serif" font-size="12" fill="#6b7280" text-anchor="middle">2025-11</text><line x1="629.3" y1="145" x2="629.3" y2="420" stroke="#d8d2c4" stroke-width="1"/><line x1="629.3" y1="500" x2="629.3" y2="665" stroke="#d8d2c4" stroke-width="1"/><line x1="629.3" y1="420" x2="629.3" y2="427" stroke="#9b9383" stroke-width="1"/><text x="629.3" y="445" font-family="Arial, Helvetica, sans-serif" font-size="12" fill="#6b7280" text-anchor="middle">2025-12</text><line x1="721.1" y1="145" x2="721.1" y2="420" stroke="#d8d2c4" stroke-width="1"/><line x1="721.1" y1="500" x2="721.1" y2="665" stroke="#d8d2c4" stroke-width="1"/><line x1="721.1" y1="420" x2="721.1" y2="427" stroke="#9b9383" stroke-width="1"/><text x="721.1" y="445" font-family="Arial, Helvetica, sans-serif" font-size="12" fill="#6b7280" text-anchor="middle">2026-01</text><line x1="813.0" y1="145" x2="813.0" y2="420" stroke="#d8d2c4" stroke-width="1"/><line x1="813.0" y1="500" x2="813.0" y2="665" stroke="#d8d2c4" stroke-width="1"/><line x1="813.0" y1="420" x2="813.0" y2="427" stroke="#9b9383" stroke-width="1"/><text x="813.0" y="445" font-family="Arial, Helvetica, sans-serif" font-size="12" fill="#6b7280" text-anchor="middle">2026-02</text><line x1="895.9" y1="145" x2="895.9" y2="420" stroke="#d8d2c4" stroke-width="1"/><line x1="895.9" y1="500" x2="895.9" y2="665" stroke="#d8d2c4" stroke-width="1"/><line x1="895.9" y1="420" x2="895.9" y2="427" stroke="#9b9383" stroke-width="1"/><text x="895.9" y="445" font-family="Arial, Helvetica, sans-serif" font-size="12" fill="#6b7280" text-anchor="middle">2026-03</text><line x1="987.8" y1="145" x2="987.8" y2="420" stroke="#d8d2c4" stroke-width="1"/><line x1="987.8" y1="500" x2="987.8" y2="665" stroke="#d8d2c4" stroke-width="1"/><line x1="987.8" y1="420" x2="987.8" y2="427" stroke="#9b9383" stroke-width="1"/><text x="987.8" y="445" font-family="Arial, Helvetica, sans-serif" font-size="12" fill="#6b7280" text-anchor="middle">2026-04</text><line x1="1076.7" y1="145" x2="1076.7" y2="420" stroke="#d8d2c4" stroke-width="1"/><line x1="1076.7" y1="500" x2="1076.7" y2="665" stroke="#d8d2c4" stroke-width="1"/><line x1="1076.7" y1="420" x2="1076.7" y2="427" stroke="#9b9383" stroke-width="1"/><text x="1076.7" y="445" font-family="Arial, Helvetica, sans-serif" font-size="12" fill="#6b7280" text-anchor="middle">2026-05</text><line x1="1168.5" y1="145" x2="1168.5" y2="420" stroke="#d8d2c4" stroke-width="1"/><line x1="1168.5" y1="500" x2="1168.5" y2="665" stroke="#d8d2c4" stroke-width="1"/><line x1="1168.5" y1="420" x2="1168.5" y2="427" stroke="#9b9383" stroke-width="1"/><text x="1168.5" y="445" font-family="Arial, Helvetica, sans-serif" font-size="12" fill="#6b7280" text-anchor="middle">2026-06</text><line x1="1210.0" y1="145" x2="1210.0" y2="420" stroke="#d8d2c4" stroke-width="1"/><line x1="1210.0" y1="500" x2="1210.0" y2="665" stroke="#d8d2c4" stroke-width="1"/><line x1="1210.0" y1="420" x2="1210.0" y2="427" stroke="#9b9383" stroke-width="1"/><text x="1210.0" y="445" font-family="Arial, Helvetica, sans-serif" font-size="12" fill="#6b7280" text-anchor="middle">2026-06-15</text>
  <rect x="90" y="145" width="1120" height="275" fill="none" stroke="#b8b0a0" stroke-width="1"/>
  <text x="30" y="151" font-family="Arial, Helvetica, sans-serif" font-size="14" fill="#6b7280">6.48T</text>
  <text x="30" y="420" font-family="Arial, Helvetica, sans-serif" font-size="14" fill="#6b7280">5.52T</text>
  <text x="90" y="127" font-family="Arial, Helvetica, sans-serif" font-size="16" font-weight="700" fill="#1f2933">Net liquidity</text>
  <polyline fill="none" stroke="#167c6b" stroke-width="4" stroke-linejoin="round" stroke-linecap="round" points="90.0,216.1 93.0,200.0 95.9,198.1 98.9,190.9 101.9,189.2 110.7,193.2 113.7,179.1 116.7,168.6 119.6,164.0 122.6,171.8 131.5,216.9 134.4,206.3 137.4,198.0 143.3,193.0 152.2,195.3 155.2,190.6 158.1,189.3 161.1,180.8 164.1,190.4 173.0,224.4 175.9,198.7 178.9,200.8 181.9,183.9 193.7,189.5 196.7,192.5 199.6,182.7 202.6,176.2 205.6,174.5 214.4,179.0 217.4,187.5 220.4,183.7 223.3,185.1 226.3,184.8 235.2,185.8 238.1,193.2 241.1,190.3 244.1,194.8 247.0,194.4 255.9,198.6 258.9,214.4 261.9,219.2 264.8,241.5 267.8,207.2 276.7,211.5 279.6,230.5 282.6,232.5 285.6,240.3 288.5,240.1 297.4,243.9 300.4,255.6 303.3,246.3 306.3,255.9 309.3,239.9 318.1,247.4 321.1,259.8 324.1,256.5 327.0,266.5 330.0,272.3 338.9,276.3 341.9,287.0 344.8,280.7 347.8,284.7 350.7,269.1 362.6,307.6 365.6,300.0 368.5,302.1 371.5,301.2 380.4,305.2 383.3,308.1 386.3,300.5 389.3,304.8 392.2,312.0 401.1,354.8 404.1,345.1 407.0,339.6 410.0,342.3 413.0,342.8 421.9,344.0 424.8,332.3 427.8,325.6 430.7,326.5 433.7,333.7 442.6,339.2 445.6,363.6 448.5,349.2 451.5,350.5 454.4,343.2 463.3,348.1 466.3,350.5 469.3,340.9 472.2,341.5 475.2,341.0 487.0,354.4 490.0,355.9 493.0,369.5 495.9,371.1 504.8,371.2 507.8,378.0 510.7,373.0 513.7,384.4 516.7,383.7 525.6,390.1 528.5,395.8 531.5,396.2 534.4,401.0 537.4,379.8 546.3,379.4 549.3,383.6 552.2,388.6 555.2,391.7 558.1,390.6 567.0,395.0 573.0,386.5 575.9,391.9 578.9,391.0 587.8,381.3 590.7,382.3 593.7,381.6 596.7,384.1 599.6,379.1 608.5,383.2 611.5,390.4 614.4,382.1 620.4,398.2 629.3,395.9 632.2,392.4 635.2,389.4 638.1,380.8 641.1,378.4 650.0,381.2 653.0,369.0 655.9,359.0 658.9,355.3 661.9,355.2 670.7,389.6 673.7,382.3 676.7,369.9 679.6,364.5 682.6,363.7 691.5,372.9 694.4,359.3 697.4,345.8 703.3,355.0 712.2,362.2 715.2,352.9 718.1,349.2 724.1,323.0 733.0,328.7 735.9,320.4 738.9,342.9 741.9,340.0 744.8,340.4 753.7,346.8 756.7,342.1 759.6,338.7 762.6,356.9 765.6,364.7 777.4,373.8 780.4,364.7 783.3,369.7 786.3,373.1 795.2,385.5 798.1,394.4 801.1,387.2 804.1,391.6 807.0,370.2 815.9,371.6 818.9,374.4 821.9,369.1 824.8,371.0 827.8,368.4 836.7,371.9 839.6,380.8 842.6,365.2 845.6,368.2 848.5,366.1 860.4,369.2 863.3,361.6 866.3,366.1 869.3,362.9 878.1,361.4 881.1,365.1 884.1,347.2 887.0,350.2 890.0,335.8 898.9,356.5 901.9,353.1 904.8,345.2 907.8,343.4 910.7,341.2 919.6,348.5 922.6,349.7 925.6,328.4 928.5,329.4 931.5,328.6 940.4,366.1 943.3,363.8 946.3,345.7 949.3,347.7 952.2,344.3 961.1,355.3 964.1,345.8 967.0,334.4 970.0,330.3 973.0,337.6 981.9,343.2 984.8,350.2 987.8,319.5 990.7,311.6 993.7,305.3 1002.6,311.5 1005.6,298.0 1008.5,283.8 1011.5,280.9 1014.4,285.5 1023.3,301.4 1026.3,307.3 1029.3,345.4 1032.2,358.7 1035.2,366.6 1044.1,377.8 1047.0,375.4 1050.0,368.5 1053.0,357.8 1055.9,359.1 1064.8,367.1 1067.8,363.7 1070.7,365.2 1073.7,359.8 1076.7,327.8 1085.6,334.3 1088.5,328.7 1091.5,326.6 1094.4,322.0 1097.4,319.9 1106.3,324.3 1109.3,321.3 1112.2,305.4 1115.2,304.0 1118.1,291.5 1127.0,299.3 1130.0,309.7 1133.0,302.4 1135.9,303.5 1138.9,314.8 1150.7,330.8 1153.7,322.4 1156.7,324.4 1159.6,339.9 1168.5,326.4 1171.5,329.1 1174.4,321.2 1177.4,320.9 1180.4,315.4 1189.3,320.8 1192.2,316.8 1195.2,304.5 1198.1,304.0 1201.1,308.8 1210.0,308.8"/>

  <rect x="90" y="500" width="1120" height="165" fill="none" stroke="#b8b0a0" stroke-width="1"/>
  <text x="90" y="480" font-family="Arial, Helvetica, sans-serif" font-size="16" font-weight="700" fill="#1f2933">Components trend (start = 100)</text>
  <polyline fill="none" stroke="#2f6fbb" stroke-width="3" stroke-linejoin="round" stroke-linecap="round" points="90.0,611.7 93.0,611.7 95.9,611.7 98.9,611.7 101.9,611.7 110.7,611.7 113.7,611.7 116.7,611.7 119.6,611.7 122.6,611.7 131.5,611.7 134.4,611.7 137.4,611.7 143.3,611.7 152.2,611.7 155.2,611.7 158.1,611.8 161.1,611.8 164.1,611.8 173.0,611.8 175.9,611.8 178.9,611.8 181.9,611.8 193.7,611.8 196.7,611.8 199.6,611.8 202.6,611.8 205.6,611.8 214.4,611.8 217.4,611.8 220.4,611.8 223.3,611.8 226.3,611.8 235.2,611.8 238.1,611.8 241.1,611.8 244.1,611.8 247.0,611.8 255.9,611.8 258.9,611.8 261.9,611.9 264.8,611.9 267.8,611.9 276.7,611.9 279.6,611.9 282.6,611.9 285.6,611.9 288.5,611.9 297.4,611.9 300.4,611.9 303.3,611.9 306.3,611.9 309.3,611.9 318.1,611.9 321.1,611.9 324.1,612.0 327.0,612.0 330.0,612.0 338.9,612.0 341.9,612.0 344.8,612.1 347.8,612.1 350.7,612.1 362.6,612.1 365.6,612.1 368.5,612.1 371.5,612.1 380.4,612.1 383.3,612.1 386.3,612.1 389.3,612.1 392.2,612.1 401.1,612.1 404.1,612.1 407.0,612.1 410.0,612.1 413.0,612.1 421.9,612.1 424.8,612.1 427.8,612.1 430.7,612.1 433.7,612.1 442.6,612.1 445.6,612.1 448.5,612.2 451.5,612.2 454.4,612.2 463.3,612.2 466.3,612.2 469.3,612.2 472.2,612.2 475.2,612.2 487.0,612.2 490.0,612.2 493.0,612.2 495.9,612.2 504.8,612.2 507.8,612.2 510.7,612.2 513.7,612.2 516.7,612.2 525.6,612.2 528.5,612.2 531.5,612.2 534.4,612.2 537.4,612.2 546.3,612.2 549.3,612.2 552.2,612.3 555.2,612.3 558.1,612.3 567.0,612.3 573.0,612.3 575.9,612.3 578.9,612.3 587.8,612.3 590.7,612.3 593.7,612.4 596.7,612.4 599.6,612.4 608.5,612.4 611.5,612.4 614.4,612.5 620.4,612.5 629.3,612.5 632.2,612.5 635.2,612.6 638.1,612.6 641.1,612.6 650.0,612.6 653.0,612.6 655.9,612.5 658.9,612.5 661.9,612.5 670.7,612.5 673.7,612.5 676.7,612.4 679.6,612.4 682.6,612.4 691.5,612.4 694.4,612.4 697.4,612.3 703.3,612.3 712.2,612.3 715.2,612.3 718.1,611.9 724.1,611.9 733.0,611.9 735.9,611.9 738.9,612.3 741.9,612.3 744.8,612.3 753.7,612.3 756.7,612.3 759.6,612.3 762.6,612.3 765.6,612.3 777.4,612.3 780.4,612.3 783.3,612.3 786.3,612.3 795.2,612.3 798.1,612.3 801.1,612.2 804.1,612.2 807.0,612.2 815.9,612.2 818.9,612.2 821.9,612.1 824.8,612.1 827.8,612.1 836.7,612.1 839.6,612.1 842.6,612.0 845.6,612.0 848.5,612.0 860.4,612.0 863.3,612.1 866.3,612.1 869.3,612.1 878.1,612.1 881.1,612.1 884.1,612.1 887.0,612.1 890.0,612.1 898.9,612.1 901.9,612.1 904.8,612.0 907.8,612.0 910.7,612.0 919.6,612.0 922.6,612.0 925.6,611.9 928.5,611.9 931.5,611.9 940.4,611.9 943.3,611.9 946.3,611.8 949.3,611.8 952.2,611.8 961.1,611.8 964.1,611.8 967.0,611.8 970.0,611.8 973.0,611.8 981.9,611.8 984.8,611.8 987.8,611.7 990.7,611.7 993.7,611.7 1002.6,611.7 1005.6,611.7 1008.5,611.6 1011.5,611.6 1014.4,611.6 1023.3,611.6 1026.3,611.6 1029.3,611.5 1032.2,611.5 1035.2,611.5 1044.1,611.5 1047.0,611.5 1050.0,611.5 1053.0,611.5 1055.9,611.5 1064.8,611.5 1067.8,611.5 1070.7,611.5 1073.7,611.5 1076.7,611.5 1085.6,611.5 1088.5,611.5 1091.5,611.5 1094.4,611.5 1097.4,611.5 1106.3,611.5 1109.3,611.5 1112.2,611.4 1115.2,611.4 1118.1,611.4 1127.0,611.4 1130.0,611.4 1133.0,611.4 1135.9,611.4 1138.9,611.4 1150.7,611.4 1153.7,611.5 1156.7,611.5 1159.6,611.5 1168.5,611.5 1171.5,611.5 1174.4,611.5 1177.4,611.5 1180.4,611.5 1189.3,611.5 1192.2,611.5 1195.2,611.4 1198.1,611.4 1201.1,611.4 1210.0,611.4"/>
  <polyline fill="none" stroke="#b7791f" stroke-width="3" stroke-linejoin="round" stroke-linecap="round" points="90.0,611.7 93.0,617.1 95.9,617.7 98.9,620.2 101.9,620.7 110.7,619.4 113.7,624.1 116.7,627.2 119.6,628.7 122.6,626.1 131.5,611.0 134.4,614.6 137.4,617.0 143.3,618.7 152.2,617.9 155.2,619.5 158.1,621.7 161.1,624.5 164.1,621.3 173.0,610.0 175.9,618.6 178.9,618.1 181.9,623.7 193.7,621.9 196.7,620.9 199.6,624.0 202.6,626.1 205.6,626.7 214.4,625.2 217.4,622.3 220.4,623.9 223.3,623.4 226.3,623.5 235.2,623.2 238.1,620.7 241.1,621.8 244.1,620.3 247.0,620.4 255.9,619.0 258.9,613.8 261.9,613.6 264.8,606.1 267.8,617.6 276.7,616.1 279.6,609.8 282.6,609.3 285.6,606.7 288.5,606.8 297.4,605.5 300.4,601.6 303.3,604.4 306.3,601.2 309.3,606.6 318.1,604.1 321.1,599.9 324.1,603.4 327.0,600.1 330.0,598.1 338.9,596.8 341.9,593.2 344.8,596.8 347.8,595.4 350.7,600.6 362.6,587.8 365.6,590.5 368.5,589.8 371.5,590.1 380.4,588.7 383.3,587.7 386.3,589.9 389.3,588.5 392.2,586.1 401.1,571.8 404.1,575.0 407.0,576.6 410.0,575.7 413.0,575.5 421.9,575.1 424.8,579.0 427.8,581.3 430.7,581.0 433.7,578.6 442.6,576.7 445.6,568.6 448.5,575.4 451.5,575.0 454.4,577.4 463.3,575.8 466.3,575.0 469.3,577.8 472.2,577.7 475.2,577.8 487.0,573.3 490.0,572.3 493.0,567.8 495.9,567.2 504.8,567.2 507.8,564.9 510.7,567.2 513.7,563.4 516.7,563.7 525.6,561.5 528.5,559.6 531.5,559.7 534.4,558.1 537.4,565.2 546.3,565.3 549.3,563.9 552.2,563.6 555.2,562.6 558.1,563.0 567.0,561.5 573.0,563.6 575.9,561.8 578.9,562.1 587.8,565.3 590.7,565.0 593.7,567.6 596.7,566.8 599.6,568.5 608.5,567.1 611.5,564.7 614.4,567.8 620.4,562.4 629.3,563.1 632.2,564.3 635.2,566.9 638.1,569.8 641.1,570.6 650.0,569.6 653.0,573.7 655.9,576.7 658.9,578.0 661.9,578.0 670.7,566.5 673.7,568.9 676.7,571.4 679.6,573.2 682.6,573.5 691.5,570.4 694.4,574.9 697.4,577.1 703.3,574.0 712.2,571.6 715.2,574.7 718.1,570.3 724.1,579.1 733.0,577.2 735.9,579.9 738.9,578.8 741.9,579.8 744.8,579.6 753.7,577.5 756.7,579.1 759.6,579.5 762.6,573.4 765.6,570.8 777.4,567.7 780.4,570.5 783.3,568.8 786.3,567.7 795.2,563.6 798.1,560.6 801.1,562.7 804.1,561.2 807.0,568.4 815.9,567.9 818.9,567.0 821.9,567.0 824.8,566.3 827.8,567.2 836.7,566.0 839.6,563.1 842.6,566.7 845.6,565.7 848.5,566.4 860.4,565.4 863.3,568.8 866.3,567.3 869.3,568.4 878.1,568.9 881.1,567.6 884.1,573.5 887.0,572.5 890.0,577.4 898.9,570.5 901.9,571.6 904.8,572.8 907.8,573.4 910.7,574.1 919.6,571.7 922.6,571.3 925.6,576.7 928.5,576.4 931.5,576.7 940.4,564.1 943.3,564.9 946.3,570.0 949.3,569.4 952.2,570.5 961.1,566.8 964.1,570.0 967.0,573.7 970.0,575.1 973.0,572.6 981.9,570.7 984.8,568.4 987.8,576.9 990.7,579.6 993.7,581.7 1002.6,579.6 1005.6,584.1 1008.5,587.1 1011.5,588.1 1014.4,586.5 1023.3,581.2 1026.3,579.2 1029.3,565.4 1032.2,560.9 1035.2,558.3 1044.1,554.5 1047.0,555.4 1050.0,557.5 1053.0,561.1 1055.9,560.6 1064.8,557.9 1067.8,559.1 1070.7,559.3 1073.7,561.1 1076.7,571.8 1085.6,569.6 1088.5,571.5 1091.5,571.3 1094.4,572.8 1097.4,573.5 1106.3,572.1 1109.3,573.1 1112.2,576.6 1115.2,577.0 1118.1,581.2 1127.0,578.6 1130.0,575.1 1133.0,579.0 1135.9,578.6 1138.9,574.8 1150.7,569.5 1153.7,573.2 1156.7,572.5 1159.6,567.4 1168.5,571.8 1171.5,571.0 1174.4,572.9 1177.4,573.0 1180.4,574.8 1189.3,573.0 1192.2,574.4 1195.2,577.2 1198.1,577.3 1201.1,575.7 1210.0,575.7"/>
  <polyline fill="none" stroke="#b83242" stroke-width="3" stroke-linejoin="round" stroke-linecap="round" points="90.0,611.7 93.0,606.3 95.9,601.5 98.9,606.5 101.9,607.5 110.7,598.3 113.7,597.2 116.7,590.5 119.6,597.6 122.6,601.6 131.5,610.2 134.4,601.5 137.4,590.3 143.3,610.9 152.2,602.6 155.2,595.8 158.1,588.5 161.1,575.7 164.1,565.4 173.0,511.4 175.9,577.8 178.9,580.4 181.9,587.4 193.7,586.3 196.7,585.9 199.6,583.5 202.6,597.0 205.6,597.6 214.4,586.4 217.4,592.4 220.4,592.8 223.3,593.8 226.3,592.1 235.2,587.7 238.1,593.0 241.1,595.1 244.1,612.8 247.0,607.2 255.9,601.0 258.9,600.8 261.9,605.6 264.8,587.4 267.8,623.6 276.7,614.8 279.6,627.6 282.6,625.2 285.6,629.6 288.5,628.8 297.4,628.3 300.4,635.9 303.3,636.0 306.3,644.7 309.3,643.2 318.1,641.8 321.1,646.7 324.1,642.8 327.0,645.8 330.0,642.4 338.9,639.0 341.9,644.8 344.8,642.9 347.8,643.8 350.7,629.6 362.6,647.1 365.6,648.1 368.5,647.4 371.5,647.2 380.4,647.7 383.3,646.6 386.3,644.6 389.3,645.3 392.2,648.3 401.1,648.4 404.1,647.8 407.0,649.3 410.0,649.4 413.0,650.1 421.9,649.3 424.8,649.2 427.8,644.6 430.7,645.8 433.7,638.8 442.6,636.3 445.6,638.5 448.5,650.5 451.5,651.0 454.4,645.8 463.3,646.9 466.3,652.2 469.3,652.0 472.2,652.3 475.2,652.4 487.0,652.6 490.0,652.0 493.0,651.5 495.9,652.4 504.8,651.8 507.8,652.2 510.7,652.4 513.7,651.5 516.7,652.9 525.6,650.4 528.5,649.3 531.5,647.6 534.4,647.7 537.4,637.7 546.3,646.3 549.3,648.4 552.2,649.7 555.2,650.3 558.1,652.1 567.0,651.4 573.0,651.8 575.9,652.5 578.9,653.2 587.8,652.7 590.7,653.4 593.7,653.3 596.7,651.6 599.6,652.9 608.5,653.3 611.5,652.9 614.4,653.0 620.4,651.3 629.3,652.6 632.2,651.9 635.2,652.9 638.1,653.0 641.1,653.2 650.0,653.1 653.0,652.7 655.9,652.1 658.9,652.8 661.9,653.4 670.7,652.8 673.7,653.2 676.7,650.4 679.6,650.0 682.6,652.7 691.5,653.2 694.4,651.8 697.4,652.2 703.3,647.4 712.2,650.4 715.2,649.8 718.1,620.9 724.1,651.9 733.0,651.6 735.9,652.8 738.9,652.2 741.9,652.7 744.8,652.6 753.7,652.6 756.7,652.6 759.6,652.7 762.6,653.0 765.6,653.3 777.4,652.6 780.4,652.6 783.3,653.0 786.3,653.4 795.2,653.2 798.1,653.3 801.1,653.3 804.1,652.8 807.0,650.7 815.9,650.4 818.9,653.1 821.9,652.9 824.8,653.1 827.8,652.7 836.7,653.2 839.6,653.2 842.6,653.3 845.6,652.8 848.5,653.5 860.4,653.5 863.3,653.4 866.3,653.5 869.3,653.5 878.1,653.4 881.1,653.4 884.1,653.3 887.0,652.5 890.0,648.6 898.9,653.5 901.9,653.3 904.8,653.4 907.8,652.8 910.7,653.2 919.6,653.5 922.6,653.6 925.6,653.5 928.5,653.6 931.5,653.5 940.4,653.5 943.3,653.4 946.3,653.4 949.3,653.4 952.2,653.4 961.1,653.4 964.1,653.3 967.0,653.4 970.0,653.4 973.0,653.3 981.9,653.4 984.8,648.8 987.8,653.0 990.7,653.5 993.7,653.5 1002.6,653.6 1005.6,648.9 1008.5,653.6 1011.5,653.5 1014.4,653.5 1023.3,653.6 1026.3,653.6 1029.3,653.6 1032.2,653.6 1035.2,653.6 1044.1,653.5 1047.0,653.4 1050.0,653.5 1053.0,653.6 1055.9,653.6 1064.8,653.5 1067.8,653.4 1070.7,653.4 1073.7,651.1 1076.7,653.5 1085.6,653.5 1088.5,653.3 1091.5,653.1 1094.4,653.4 1097.4,653.4 1106.3,653.3 1109.3,653.3 1112.2,652.5 1115.2,653.0 1118.1,653.4 1127.0,651.4 1130.0,649.7 1133.0,646.0 1135.9,652.6 1138.9,653.3 1150.7,653.1 1153.7,653.1 1156.7,653.3 1159.6,650.0 1168.5,653.2 1171.5,652.9 1174.4,653.0 1177.4,653.3 1180.4,653.4 1189.3,653.1 1192.2,653.5 1195.2,653.5 1198.1,653.5 1201.1,653.5 1210.0,653.5"/>
  <text x="30" y="506" font-family="Arial, Helvetica, sans-serif" font-size="14" fill="#6b7280">366.3</text>
  <text x="30" y="665" font-family="Arial, Helvetica, sans-serif" font-size="14" fill="#6b7280">-27.1</text>
  <circle cx="875" cy="466" r="6" fill="#2f6fbb"/><text x="890" y="471" font-family="Arial, Helvetica, sans-serif" font-size="15" fill="#1f2933">Fed assets</text>
  <circle cx="985" cy="466" r="6" fill="#b7791f"/><text x="1000" y="471" font-family="Arial, Helvetica, sans-serif" font-size="15" fill="#1f2933">TGA</text>
  <circle cx="1055" cy="466" r="6" fill="#b83242"/><text x="1070" y="471" font-family="Arial, Helvetica, sans-serif" font-size="15" fill="#1f2933">ON RRP</text>

  <text x="60" y="714" font-family="Arial, Helvetica, sans-serif" font-size="14" fill="#6b7280">Lower chart indexes each component to 100 on 2025-06-02. Latest component dates: Fed 2026-06-10, TGA 2026-06-12, RRP 2026-06-15.</text>
  <text x="60" y="736" font-family="Arial, Helvetica, sans-serif" font-size="14" fill="#6b7280">Source pages: Federal Reserve H.4.1, Treasury DTS, New York Fed reverse repo operations.</text>
</svg>
